<svg width="2717" height="790" viewBox="0 0 2717 790" fill="none" xmlns="http://www.w3.org/2000/svg">
<g clip-path="url(#clip0_242_81)">
<rect width="790" height="790" rx="184" fill="url(#paint0_linear_242_81)"/>
<rect x="581.082" y="321.57" width="90" height="726" rx="45" transform="rotate(-73.8697 581.082 321.57)" fill="white"/>
<circle cx="523.458" cy="258.061" r="93" transform="rotate(-73.8697 523.458 258.061)" stroke="white" stroke-width="67"/>
<rect x="341.232" y="493.512" width="90" height="726" rx="45" transform="rotate(-73.8697 341.232 493.512)" fill="white"/>
<circle cx="283.608" cy="430.002" r="93" transform="rotate(-73.8697 283.608 430.002)" stroke="white" stroke-width="67"/>
</g>
<path d="M910 294.278V139.604C910 132.351 914.636 128.725 923.908 128.725H954.11C963.382 128.725 968.018 132.351 968.018 139.604V292.3C968.018 327.903 973.251 350.187 983.715 359.154C994.312 367.989 1006.23 372.406 1019.48 372.406C1032.73 372.406 1044.58 367.989 1055.05 359.154C1065.64 350.187 1070.94 327.903 1070.94 292.3V139.604C1070.94 132.351 1075.58 128.725 1084.85 128.725H1115.05C1124.32 128.725 1128.96 132.351 1128.96 139.604V294.278C1128.96 340.43 1119.16 372.802 1099.55 391.394C1079.95 409.855 1053.26 419.085 1019.48 419.085C985.702 419.085 959.011 409.855 939.407 391.394C919.802 372.802 910 340.43 910 294.278Z" fill="#09090B"/>
<path d="M1206.45 412.36C1197.18 412.36 1192.54 407.416 1192.54 397.526V143.559C1192.54 133.67 1197.18 128.725 1206.45 128.725H1235.86C1247.25 128.725 1255.86 133.34 1261.69 142.57L1363.02 304.563H1364.41C1363.75 296.651 1363.42 288.74 1363.42 280.828V143.559C1363.42 133.67 1368.05 128.725 1377.33 128.725H1407.53C1416.8 128.725 1421.44 133.67 1421.44 143.559V397.526C1421.44 407.416 1416.8 412.36 1407.53 412.36H1380.11C1368.72 412.36 1360.11 407.745 1354.28 398.515L1250.96 233.555H1249.57C1250.23 241.467 1250.56 249.379 1250.56 257.291V397.526C1250.56 407.416 1245.92 412.36 1236.65 412.36H1206.45Z" fill="#09090B"/>
<path d="M1498.93 412.36C1489.65 412.36 1485.02 407.416 1485.02 397.526V143.559C1485.02 133.67 1489.65 128.725 1498.93 128.725H1529.13C1538.4 128.725 1543.04 133.67 1543.04 143.559V397.526C1543.04 407.416 1538.4 412.36 1529.13 412.36H1498.93Z" fill="#09090B"/>
<path d="M1591.91 270.543C1591.91 225.05 1603.7 188.92 1627.28 162.152C1650.86 135.384 1684.5 122 1728.22 122C1771.93 122 1805.57 135.384 1829.15 162.152C1852.73 188.92 1864.52 225.05 1864.52 270.543C1864.52 316.035 1852.73 352.165 1829.15 378.933C1811.14 399.372 1787.23 412.031 1757.42 416.91C1758.62 428.777 1761.73 437.612 1766.76 443.414C1771.93 449.348 1781.86 452.315 1796.57 452.315C1803.32 452.315 1810.34 451.392 1817.63 449.546C1824.25 447.831 1828.09 449.282 1829.15 453.897L1834.72 476.841C1835.91 481.984 1833.52 485.28 1827.56 486.731C1811.93 490.818 1799.48 492.862 1790.21 492.862C1754.71 492.862 1731 485.412 1719.08 470.512C1707.29 455.611 1700.66 437.744 1699.21 416.91C1669.27 412.163 1645.3 399.504 1627.28 378.933C1603.7 352.165 1591.91 316.035 1591.91 270.543ZM1653.91 270.543C1653.91 303.508 1659.8 328.76 1671.59 346.298C1683.51 363.703 1702.39 372.406 1728.22 372.406C1754.05 372.406 1772.86 363.703 1784.65 346.298C1796.57 328.76 1802.53 303.508 1802.53 270.543C1802.53 237.577 1796.57 212.392 1784.65 194.986C1772.86 177.448 1754.05 168.679 1728.22 168.679C1702.39 168.679 1683.51 177.448 1671.59 194.986C1659.8 212.392 1653.91 237.577 1653.91 270.543Z" fill="#09090B"/>
<path d="M1927.31 412.36C1918.03 412.36 1913.4 407.416 1913.4 397.526V143.559C1913.4 133.67 1918.03 128.725 1927.31 128.725H1957.51C1966.78 128.725 1971.42 133.67 1971.42 143.559V240.28H2078.31V143.559C2078.31 133.67 2082.95 128.725 2092.22 128.725H2122.42C2131.7 128.725 2136.33 133.67 2136.33 143.559V397.526C2136.33 407.416 2131.7 412.36 2122.42 412.36H2092.22C2082.95 412.36 2078.31 407.416 2078.31 397.526V289.333H1971.42V397.526C1971.42 407.416 1966.78 412.36 1957.51 412.36H1927.31Z" fill="#09090B"/>
<path d="M2215.81 412.36C2205.21 412.36 2199.91 407.416 2199.91 397.526V143.559C2199.91 133.67 2205.21 128.725 2215.81 128.725H2283.36C2334.23 128.725 2368.54 134.988 2386.29 147.515C2404.17 159.91 2413.11 179.03 2413.11 204.875C2413.11 222.94 2406.42 236.918 2393.04 246.808C2379.8 256.697 2366.95 262.433 2354.5 264.016V264.609C2366.55 265.4 2380.72 271.466 2397.02 282.806C2413.31 294.146 2421.46 310.167 2421.46 330.87C2421.46 355.132 2411.52 374.78 2391.65 389.812C2371.78 404.844 2339 412.36 2293.3 412.36H2215.81ZM2257.93 364.099H2286.94C2315.02 364.099 2334.1 361.659 2344.16 356.781C2354.36 351.902 2359.46 342.012 2359.46 327.112C2359.46 313.134 2353.57 303.508 2341.78 298.234C2330.12 292.827 2311.84 290.124 2286.94 290.124H2257.93V364.099ZM2257.93 243.445H2283.96C2301.05 243.445 2317.01 240.478 2331.85 234.544C2346.81 228.611 2354.3 219.38 2354.3 206.853C2354.3 197.096 2350.13 189.711 2341.78 184.7C2333.57 179.558 2314.29 176.987 2283.96 176.987H2257.93V243.445Z" fill="#09090B"/>
<path d="M2465.17 412.36C2455.63 412.36 2452.52 408.009 2455.83 399.306L2553.19 144.746C2557.3 134.065 2563.52 128.725 2571.87 128.725H2599.68C2608.03 128.725 2614.25 134.065 2618.36 144.746L2715.72 399.306C2719.03 408.009 2715.92 412.36 2706.38 412.36H2674.79C2666.05 412.36 2659.95 407.811 2656.51 398.713L2636.24 345.506H2535.31L2515.04 398.713C2511.6 407.811 2505.5 412.36 2496.76 412.36H2465.17ZM2553.79 296.454H2617.76L2593.32 233.555C2590.41 226.171 2588.62 220.831 2587.96 217.534C2587.43 214.106 2586.83 209.095 2586.17 202.502H2585.38C2584.71 209.095 2584.05 214.106 2583.39 217.534C2582.86 220.831 2581.14 226.171 2578.22 233.555L2553.79 296.454Z" fill="#09090B"/>
<path d="M925 618.687V547.294C925 544.147 926.418 542.574 929.253 542.574H937.078C939.913 542.574 941.33 544.147 941.33 547.294V616.113C941.33 632.131 943.57 642.6 948.049 647.519C952.586 652.382 959.957 654.813 970.163 654.813C980.37 654.813 987.713 652.382 992.192 647.519C996.728 642.6 998.996 632.131 998.996 616.113V547.294C998.996 544.147 1000.41 542.574 1003.25 542.574H1011.07C1013.91 542.574 1015.33 544.147 1015.33 547.294V618.687C1015.33 636.822 1011.19 649.607 1002.91 657.044C994.687 664.481 983.772 668.199 970.163 668.199C956.555 668.199 945.611 664.481 937.333 657.044C929.111 649.607 925 636.822 925 618.687Z" fill="#09090B"/>
<path d="M1048.5 665.625C1045.66 665.625 1044.24 664.052 1044.24 660.906V547.294C1044.24 544.147 1045.66 542.574 1048.5 542.574H1059.38C1063.35 542.574 1066.19 544.004 1067.89 546.865L1121.13 636.879H1121.47C1121.36 634.591 1121.3 632.302 1121.3 630.014V547.294C1121.3 544.147 1122.72 542.574 1125.56 542.574H1133.38C1136.22 542.574 1137.63 544.147 1137.63 547.294V660.906C1137.63 664.052 1136.22 665.625 1133.38 665.625H1125.9C1121.93 665.625 1119.09 664.195 1117.39 661.335L1060.74 565.829H1060.4C1060.52 568.117 1060.57 570.405 1060.57 572.693V660.906C1060.57 664.052 1059.16 665.625 1056.32 665.625H1048.5Z" fill="#09090B"/>
<path d="M1170.8 665.625C1167.97 665.625 1166.55 664.052 1166.55 660.906V547.294C1166.55 544.147 1167.97 542.574 1170.8 542.574H1202.19C1226.23 542.574 1242.93 547.952 1252.28 558.706C1261.7 569.404 1266.4 584.478 1266.4 603.928C1266.4 623.378 1261.7 638.538 1252.28 649.407C1242.93 660.219 1226.23 665.625 1202.19 665.625H1170.8ZM1182.88 651.552H1201.42C1220.13 651.552 1232.72 647.548 1239.19 639.539C1245.71 631.53 1248.97 619.66 1248.97 603.928C1248.97 588.196 1245.71 576.355 1239.19 568.403C1232.72 560.451 1220.13 556.475 1201.42 556.475H1182.88V651.552Z" fill="#09090B"/>
<path d="M1292.94 665.625C1290.1 665.625 1288.69 664.052 1288.69 660.906V547.294C1288.69 544.147 1290.1 542.574 1292.94 542.574H1367.36C1370.48 542.574 1372.04 543.861 1372.04 546.436V552.786C1372.04 555.36 1370.48 556.647 1367.36 556.647H1305.02V594.746H1362.26C1365.38 594.746 1366.94 596.034 1366.94 598.608V604.958C1366.94 607.532 1365.38 608.819 1362.26 608.819H1305.02V651.552H1369.91C1373.03 651.552 1374.59 652.839 1374.59 655.414V661.764C1374.59 664.338 1373.03 665.625 1369.91 665.625H1292.94Z" fill="#09090B"/>
<path d="M1400.96 665.625C1398.12 665.625 1396.7 664.052 1396.7 660.906V547.294C1396.7 544.147 1398.12 542.574 1400.96 542.574H1442.04C1458.43 542.574 1470.28 545.663 1477.59 551.842C1484.96 558.02 1488.65 566.172 1488.65 576.297C1488.65 585.222 1485.67 592.716 1479.72 598.779C1473.82 604.843 1465.4 608.333 1454.46 609.248V609.42C1460.24 613.768 1464.07 617.085 1465.94 619.374C1467.81 621.605 1469.91 624.637 1472.23 628.47L1491.45 659.962C1493.78 663.737 1493.27 665.625 1489.92 665.625H1480.23C1477.56 665.625 1475.58 664.51 1474.27 662.278L1456.58 631.645C1454.03 627.24 1450.37 622.921 1445.61 618.687C1440.85 614.454 1434.92 612.337 1427.83 612.337H1413.04V660.906C1413.04 664.052 1411.62 665.625 1408.78 665.625H1400.96ZM1413.04 598.265H1437.62C1448.67 598.265 1457.18 596.806 1463.13 593.888C1469.09 590.914 1472.06 584.707 1472.06 575.268C1472.06 568.06 1469.34 563.169 1463.9 560.594C1458.45 557.963 1451.05 556.647 1441.7 556.647H1413.04V598.265Z" fill="#09090B"/>
<path d="M1508.63 604.1C1508.63 584.077 1513.77 568.403 1524.03 557.076C1534.29 545.692 1548.55 540 1566.81 540C1577.75 540 1586.69 541.916 1593.6 545.749C1600.52 549.525 1605.6 553.987 1608.83 559.136C1610.81 562.339 1610.78 564.656 1608.74 566.086L1602.36 570.548C1600.27 572.036 1598.17 571.149 1596.07 567.888C1594.37 565.314 1591.16 562.253 1586.46 558.706C1581.75 555.16 1575.49 553.386 1567.66 553.386C1553.77 553.386 1543.36 557.848 1536.45 566.773C1529.53 575.64 1526.07 588.082 1526.07 604.1C1526.07 620.117 1529.44 632.588 1536.19 641.513C1542.94 650.38 1553.71 654.813 1568.51 654.813C1575.88 654.813 1582.29 653.926 1587.73 652.153C1593.23 650.322 1597.09 647.805 1599.3 644.602V621.862H1574.04C1570.92 621.862 1569.36 620.575 1569.36 618.001V611.651C1569.36 609.077 1570.92 607.789 1574.04 607.789H1610.95C1614.07 607.789 1615.63 609.077 1615.63 611.651V652.153C1608.71 657.244 1601.8 661.192 1594.88 663.995C1587.96 666.798 1578.89 668.199 1567.66 668.199C1548.95 668.199 1534.43 662.536 1524.11 651.209C1513.79 639.825 1508.63 624.122 1508.63 604.1Z" fill="#09090B"/>
<path d="M1644.55 665.625C1641.71 665.625 1640.3 664.052 1640.3 660.906V547.294C1640.3 544.147 1641.71 542.574 1644.55 542.574H1685.63C1702.02 542.574 1713.87 545.663 1721.18 551.842C1728.55 558.02 1732.24 566.172 1732.24 576.297C1732.24 585.222 1729.26 592.716 1723.31 598.779C1717.41 604.843 1708.99 608.333 1698.05 609.248V609.42C1703.83 613.768 1707.66 617.085 1709.53 619.374C1711.4 621.605 1713.5 624.637 1715.82 628.47L1735.05 659.962C1737.37 663.737 1736.86 665.625 1733.52 665.625H1723.82C1721.15 665.625 1719.17 664.51 1717.87 662.278L1700.17 631.645C1697.62 627.24 1693.97 622.921 1689.2 618.687C1684.44 614.454 1678.51 612.337 1671.43 612.337H1656.63V660.906C1656.63 664.052 1655.21 665.625 1652.37 665.625H1644.55ZM1656.63 598.265H1681.21C1692.26 598.265 1700.77 596.806 1706.72 593.888C1712.68 590.914 1715.65 584.707 1715.65 575.268C1715.65 568.06 1712.93 563.169 1707.49 560.594C1702.05 557.963 1694.65 556.647 1685.29 556.647H1656.63V598.265Z" fill="#09090B"/>
<path d="M1752.23 604.1C1752.23 584.077 1757.1 568.403 1766.86 557.076C1776.67 545.692 1790.78 540 1809.21 540C1827.64 540 1841.73 545.692 1851.48 557.076C1861.29 568.403 1866.2 584.077 1866.2 604.1C1866.2 624.122 1861.29 639.825 1851.48 651.209C1841.73 662.536 1827.64 668.199 1809.21 668.199C1790.78 668.199 1776.67 662.536 1766.86 651.209C1757.1 639.825 1752.23 624.122 1752.23 604.1ZM1769.66 604.1C1769.66 620.117 1772.92 632.588 1779.44 641.513C1785.97 650.38 1795.89 654.813 1809.21 654.813C1822.54 654.813 1832.46 650.38 1838.98 641.513C1845.5 632.588 1848.76 620.117 1848.76 604.1C1848.76 588.082 1845.5 575.64 1838.98 566.773C1832.46 557.848 1822.54 553.386 1809.21 553.386C1795.89 553.386 1785.97 557.848 1779.44 566.773C1772.92 575.64 1769.66 588.082 1769.66 604.1Z" fill="#09090B"/>
<path d="M1888.48 618.687V547.294C1888.48 544.147 1889.9 542.574 1892.74 542.574H1900.56C1903.4 542.574 1904.81 544.147 1904.81 547.294V616.113C1904.81 632.131 1907.05 642.6 1911.53 647.519C1916.07 652.382 1923.44 654.813 1933.65 654.813C1943.85 654.813 1951.19 652.382 1955.67 647.519C1960.21 642.6 1962.48 632.131 1962.48 616.113V547.294C1962.48 544.147 1963.9 542.574 1966.73 542.574H1974.56C1977.39 542.574 1978.81 544.147 1978.81 547.294V618.687C1978.81 636.822 1974.67 649.607 1966.39 657.044C1958.17 664.481 1947.25 668.199 1933.65 668.199C1920.04 668.199 1909.09 664.481 1900.82 657.044C1892.59 649.607 1888.48 636.822 1888.48 618.687Z" fill="#09090B"/>
<path d="M2011.98 665.625C2009.14 665.625 2007.73 664.052 2007.73 660.906V547.294C2007.73 544.147 2009.14 542.574 2011.98 542.574H2022.87C2026.84 542.574 2029.67 544.004 2031.37 546.865L2084.62 636.879H2084.96C2084.84 634.591 2084.79 632.302 2084.79 630.014V547.294C2084.79 544.147 2086.2 542.574 2089.04 542.574H2096.86C2099.7 542.574 2101.12 544.147 2101.12 547.294V660.906C2101.12 664.052 2099.7 665.625 2096.86 665.625H2089.38C2085.41 665.625 2082.57 664.195 2080.87 661.335L2024.23 565.829H2023.89C2024 568.117 2024.06 570.405 2024.06 572.693V660.906C2024.06 664.052 2022.64 665.625 2019.8 665.625H2011.98Z" fill="#09090B"/>
<path d="M2134.29 665.625C2131.45 665.625 2130.03 664.052 2130.03 660.906V547.294C2130.03 544.147 2131.45 542.574 2134.29 542.574H2165.67C2189.71 542.574 2206.41 547.952 2215.77 558.706C2225.18 569.404 2229.89 584.478 2229.89 603.928C2229.89 623.378 2225.18 638.538 2215.77 649.407C2206.41 660.219 2189.71 665.625 2165.67 665.625H2134.29ZM2146.36 651.552H2164.91C2183.62 651.552 2196.2 647.548 2202.67 639.539C2209.19 631.53 2212.45 619.66 2212.45 603.928C2212.45 588.196 2209.19 576.355 2202.67 568.403C2196.2 560.451 2183.62 556.475 2164.91 556.475H2146.36V651.552Z" fill="#09090B"/>
<defs>
<linearGradient id="paint0_linear_242_81" x1="395" y1="0" x2="395" y2="790" gradientUnits="userSpaceOnUse">
<stop stop-color="#178E3B"/>
<stop offset="1" stop-color="#075F46"/>
</linearGradient>
<clipPath id="clip0_242_81">
<rect width="790" height="790" fill="white"/>
</clipPath>
</defs>
</svg>
