<svg width="3224" height="984" viewBox="0 0 3224 984" fill="none" xmlns="http://www.w3.org/2000/svg">
<path d="M1085 388.259V209.361C1085 200.972 1090.36 196.778 1101.09 196.778H1136.02C1146.74 196.778 1152.1 200.972 1152.1 209.361V385.971C1152.1 427.15 1158.16 452.925 1170.26 463.296C1182.52 473.514 1196.3 478.623 1211.63 478.623C1226.95 478.623 1240.66 473.514 1252.76 463.296C1265.02 452.925 1271.15 427.15 1271.15 385.971V209.361C1271.15 200.972 1276.51 196.778 1287.23 196.778H1322.16C1332.89 196.778 1338.25 200.972 1338.25 209.361V388.259C1338.25 441.639 1326.91 479.081 1304.24 500.585C1281.56 521.937 1250.69 532.613 1211.63 532.613C1172.56 532.613 1141.69 521.937 1119.01 500.585C1096.34 479.081 1085 441.639 1085 388.259Z" fill="white"/>
<path d="M1427.88 524.835C1417.15 524.835 1411.79 519.116 1411.79 507.677V213.936C1411.79 202.497 1417.15 196.778 1427.88 196.778H1461.89C1475.07 196.778 1485.02 202.116 1491.76 212.792L1608.97 400.155H1610.58C1609.81 391.004 1609.43 381.853 1609.43 372.703V213.936C1609.43 202.497 1614.79 196.778 1625.51 196.778H1660.45C1671.17 196.778 1676.53 202.497 1676.53 213.936V507.677C1676.53 519.116 1671.17 524.835 1660.45 524.835H1628.73C1615.56 524.835 1605.6 519.497 1598.86 508.821L1479.36 318.026H1477.75C1478.51 327.177 1478.9 336.328 1478.9 345.479V507.677C1478.9 519.116 1473.53 524.835 1462.81 524.835H1427.88Z" fill="white"/>
<path d="M1766.16 524.835C1755.43 524.835 1750.07 519.116 1750.07 507.677V213.936C1750.07 202.497 1755.43 196.778 1766.16 196.778H1801.09C1811.81 196.778 1817.18 202.497 1817.18 213.936V507.677C1817.18 519.116 1811.81 524.835 1801.09 524.835H1766.16Z" fill="white"/>
<path d="M1873.71 360.806C1873.71 308.189 1887.35 266.401 1914.62 235.44C1941.89 204.48 1980.8 189 2031.36 189C2081.92 189 2120.83 204.48 2148.1 235.44C2175.37 266.401 2189.01 308.189 2189.01 360.806C2189.01 413.424 2175.37 455.212 2148.1 486.173C2127.27 509.812 2099.61 524.453 2065.14 530.096C2066.52 543.823 2070.12 554.041 2075.94 560.752C2081.92 567.615 2093.41 571.046 2110.42 571.046C2118.23 571.046 2126.35 569.979 2134.78 567.844C2142.44 565.861 2146.88 567.539 2148.1 572.877L2154.54 599.414C2155.92 605.362 2153.16 609.175 2146.27 610.852C2128.19 615.58 2113.79 617.944 2103.06 617.944C2062 617.944 2034.58 609.327 2020.79 592.093C2007.15 574.859 1999.49 554.194 1997.81 530.096C1963.18 524.606 1935.45 509.965 1914.62 486.173C1887.35 455.212 1873.71 413.424 1873.71 360.806ZM1945.41 360.806C1945.41 398.935 1952.23 428.141 1965.86 448.426C1979.65 468.557 2001.48 478.623 2031.36 478.623C2061.24 478.623 2082.99 468.557 2096.63 448.426C2110.42 428.141 2117.31 398.935 2117.31 360.806C2117.31 322.678 2110.42 293.548 2096.63 273.416C2082.99 253.132 2061.24 242.99 2031.36 242.99C2001.48 242.99 1979.65 253.132 1965.86 273.416C1952.23 293.548 1945.41 322.678 1945.41 360.806Z" fill="white"/>
<path d="M2261.63 524.835C2250.91 524.835 2245.54 519.116 2245.54 507.677V213.936C2245.54 202.497 2250.91 196.778 2261.63 196.778H2296.56C2307.29 196.778 2312.65 202.497 2312.65 213.936V325.805H2436.29V213.936C2436.29 202.497 2441.65 196.778 2452.37 196.778H2487.3C2498.03 196.778 2503.39 202.497 2503.39 213.936V507.677C2503.39 519.116 2498.03 524.835 2487.3 524.835H2452.37C2441.65 524.835 2436.29 519.116 2436.29 507.677V382.54H2312.65V507.677C2312.65 519.116 2307.29 524.835 2296.56 524.835H2261.63Z" fill="white"/>
<path d="M2595.32 524.835C2583.06 524.835 2576.93 519.116 2576.93 507.677V213.936C2576.93 202.497 2583.06 196.778 2595.32 196.778H2673.45C2732.28 196.778 2771.96 204.023 2792.49 218.511C2813.18 232.848 2823.52 254.962 2823.52 284.855C2823.52 305.749 2815.78 321.916 2800.31 333.354C2784.99 344.793 2770.12 351.427 2755.72 353.257V353.943C2769.67 354.858 2786.06 361.874 2804.9 374.99C2823.75 388.106 2833.17 406.637 2833.17 430.581C2833.17 458.644 2821.68 481.368 2798.7 498.755C2775.72 516.141 2737.8 524.835 2684.94 524.835H2595.32ZM2644.04 469.015H2677.59C2710.07 469.015 2732.13 466.193 2743.77 460.55C2755.57 454.907 2761.47 443.469 2761.47 426.235C2761.47 410.068 2754.65 398.935 2741.02 392.834C2727.53 386.581 2706.39 383.455 2677.59 383.455H2644.04V469.015ZM2644.04 329.465H2674.14C2693.9 329.465 2712.37 326.033 2729.53 319.17C2746.84 312.307 2755.49 301.631 2755.49 287.142C2755.49 275.856 2750.67 267.316 2741.02 261.52C2731.52 255.572 2709.23 252.598 2674.14 252.598H2644.04V329.465Z" fill="white"/>
<path d="M2883.73 524.835C2872.7 524.835 2869.1 519.802 2872.93 509.736L2985.53 215.309C2990.28 202.955 2997.48 196.778 3007.14 196.778H3039.31C3048.96 196.778 3056.16 202.955 3060.91 215.309L3173.52 509.736C3177.35 519.802 3173.75 524.835 3162.72 524.835H3126.18C3116.07 524.835 3109.02 519.573 3105.04 509.05L3081.6 447.51H2964.85L2941.41 509.05C2937.43 519.573 2930.38 524.835 2920.27 524.835H2883.73ZM2986.22 390.775H3060.22L3031.96 318.026C3028.59 309.486 3026.52 303.309 3025.75 299.496C3025.14 295.531 3024.45 289.735 3023.68 282.11H3022.76C3022 289.735 3021.23 295.531 3020.47 299.496C3019.85 303.309 3017.86 309.486 3014.49 318.026L2986.22 390.775Z" fill="white"/>
<path d="M1085 764.632V682.057C1085 678.418 1086.64 676.599 1089.92 676.599H1098.97C1102.25 676.599 1103.89 678.418 1103.89 682.057V761.654C1103.89 780.181 1106.48 792.289 1111.66 797.979C1116.91 803.603 1125.43 806.415 1137.24 806.415C1149.04 806.415 1157.53 803.603 1162.72 797.979C1167.96 792.289 1170.59 780.181 1170.59 761.654V682.057C1170.59 678.418 1172.22 676.599 1175.5 676.599H1184.55C1187.83 676.599 1189.47 678.418 1189.47 682.057V764.632C1189.47 785.606 1184.69 800.394 1175.11 808.996C1165.6 817.597 1152.98 821.898 1137.24 821.898C1121.5 821.898 1108.84 817.597 1099.26 808.996C1089.75 800.394 1085 785.606 1085 764.632Z" fill="white"/>
<path d="M1227.84 818.921C1224.56 818.921 1222.92 817.101 1222.92 813.462V682.057C1222.92 678.418 1224.56 676.599 1227.84 676.599H1240.43C1245.02 676.599 1248.3 678.253 1250.27 681.561L1311.85 785.672H1312.24C1312.11 783.026 1312.05 780.379 1312.05 777.733V682.057C1312.05 678.418 1313.69 676.599 1316.96 676.599H1326.02C1329.29 676.599 1330.93 678.418 1330.93 682.057V813.462C1330.93 817.101 1329.29 818.921 1326.02 818.921H1317.36C1312.77 818.921 1309.49 817.267 1307.52 813.958L1242 703.495H1241.61C1241.74 706.141 1241.81 708.788 1241.81 711.435V813.462C1241.81 817.101 1240.17 818.921 1236.89 818.921H1227.84Z" fill="white"/>
<path d="M1369.3 818.921C1366.02 818.921 1364.38 817.101 1364.38 813.462V682.057C1364.38 678.418 1366.02 676.599 1369.3 676.599H1405.6C1433.41 676.599 1452.72 682.818 1463.54 695.257C1474.43 707.63 1479.87 725.065 1479.87 747.561C1479.87 770.057 1474.43 787.591 1463.54 800.163C1452.72 812.668 1433.41 818.921 1405.6 818.921H1369.3ZM1383.27 802.644H1404.71C1426.36 802.644 1440.92 798.012 1448.39 788.749C1455.93 779.486 1459.71 765.757 1459.71 747.561C1459.71 729.366 1455.93 715.669 1448.39 706.472C1440.92 697.275 1426.36 692.677 1404.71 692.677H1383.27V802.644Z" fill="white"/>
<path d="M1510.56 818.921C1507.29 818.921 1505.65 817.101 1505.65 813.462V682.057C1505.65 678.418 1507.29 676.599 1510.56 676.599H1596.64C1600.25 676.599 1602.05 678.087 1602.05 681.065V688.409C1602.05 691.387 1600.25 692.875 1596.64 692.875H1524.53V736.942H1590.74C1594.35 736.942 1596.15 738.43 1596.15 741.408V748.752C1596.15 751.73 1594.35 753.218 1590.74 753.218H1524.53V802.644H1599.59C1603.2 802.644 1605 804.133 1605 807.11V814.454C1605 817.432 1603.2 818.921 1599.59 818.921H1510.56Z" fill="white"/>
<path d="M1635.5 818.921C1632.22 818.921 1630.58 817.101 1630.58 813.462V682.057C1630.58 678.418 1632.22 676.599 1635.5 676.599H1683.01C1701.97 676.599 1715.67 680.171 1724.13 687.317C1732.66 694.463 1736.92 703.892 1736.92 715.603C1736.92 725.925 1733.48 734.593 1726.59 741.606C1719.77 748.62 1710.03 752.656 1697.38 753.715V753.913C1704.07 758.942 1708.49 762.779 1710.66 765.426C1712.82 768.006 1715.25 771.513 1717.94 775.946L1740.17 812.37C1742.86 816.737 1742.27 818.921 1738.4 818.921H1727.18C1724.1 818.921 1721.81 817.63 1720.3 815.05L1699.84 779.618C1696.88 774.524 1692.65 769.528 1687.14 764.632C1681.64 759.736 1674.78 757.287 1666.58 757.287H1649.47V813.462C1649.47 817.101 1647.83 818.921 1644.55 818.921H1635.5ZM1649.47 741.011H1677.9C1690.69 741.011 1700.52 739.323 1707.41 735.949C1714.3 732.508 1717.74 725.329 1717.74 714.412C1717.74 706.075 1714.59 700.418 1708.3 697.441C1702 694.397 1693.44 692.875 1682.62 692.875H1649.47V741.011Z" fill="white"/>
<path d="M1760.04 747.76C1760.04 724.602 1765.98 706.472 1777.85 693.372C1789.72 680.205 1806.21 673.621 1827.33 673.621C1839.98 673.621 1850.31 675.838 1858.32 680.271C1866.32 684.638 1872.19 689.799 1875.92 695.753C1878.22 699.459 1878.19 702.138 1875.83 703.793L1868.45 708.954C1866.02 710.674 1863.59 709.648 1861.17 705.877C1859.2 702.899 1855.5 699.359 1850.05 695.257C1844.61 691.155 1837.36 689.104 1828.31 689.104C1812.24 689.104 1800.21 694.265 1792.21 704.587C1784.21 714.842 1780.21 729.233 1780.21 747.76C1780.21 766.286 1784.11 780.71 1791.91 791.032C1799.72 801.288 1812.18 806.415 1829.29 806.415C1837.82 806.415 1845.23 805.39 1851.53 803.339C1857.89 801.221 1862.35 798.31 1864.91 794.605V768.304H1835.69C1832.08 768.304 1830.28 766.815 1830.28 763.838V756.493C1830.28 753.516 1832.08 752.027 1835.69 752.027H1878.38C1881.99 752.027 1883.79 753.516 1883.79 756.493V803.339C1875.79 809.227 1867.79 813.793 1859.79 817.035C1851.79 820.277 1841.3 821.898 1828.31 821.898C1806.67 821.898 1789.88 815.348 1777.94 802.247C1766.01 789.08 1760.04 770.918 1760.04 747.76Z" fill="white"/>
<path d="M1917.24 818.921C1913.96 818.921 1912.32 817.101 1912.32 813.462V682.057C1912.32 678.418 1913.96 676.599 1917.24 676.599H1964.76C1983.71 676.599 1997.42 680.171 2005.88 687.317C2014.4 694.463 2018.66 703.892 2018.66 715.603C2018.66 725.925 2015.22 734.593 2008.33 741.606C2001.51 748.62 1991.78 752.656 1979.12 753.715V753.913C1985.81 758.942 1990.23 762.779 1992.4 765.426C1994.56 768.006 1996.99 771.513 1999.68 775.946L2021.91 812.37C2024.6 816.737 2024.01 818.921 2020.14 818.921H2008.93C2005.84 818.921 2003.55 817.63 2002.04 815.05L1981.58 779.618C1978.63 774.524 1974.4 769.528 1968.89 764.632C1963.38 759.736 1956.52 757.287 1948.33 757.287H1931.21V813.462C1931.21 817.101 1929.57 818.921 1926.29 818.921H1917.24ZM1931.21 741.011H1959.64C1972.43 741.011 1982.27 739.323 1989.15 735.949C1996.04 732.508 1999.48 725.329 1999.48 714.412C1999.48 706.075 1996.33 700.418 1990.04 697.441C1983.74 694.397 1975.18 692.875 1964.36 692.875H1931.21V741.011Z" fill="white"/>
<path d="M2041.78 747.76C2041.78 724.602 2047.42 706.472 2058.7 693.372C2070.05 680.205 2086.38 673.621 2107.69 673.621C2129.01 673.621 2145.3 680.205 2156.58 693.372C2167.93 706.472 2173.6 724.602 2173.6 747.76C2173.6 770.918 2167.93 789.08 2156.58 802.247C2145.3 815.348 2129.01 821.898 2107.69 821.898C2086.38 821.898 2070.05 815.348 2058.7 802.247C2047.42 789.08 2041.78 770.918 2041.78 747.76ZM2061.95 747.76C2061.95 766.286 2065.72 780.71 2073.26 791.032C2080.8 801.288 2092.28 806.415 2107.69 806.415C2123.1 806.415 2134.58 801.288 2142.12 791.032C2149.66 780.71 2153.44 766.286 2153.44 747.76C2153.44 729.233 2149.66 714.842 2142.12 704.587C2134.58 694.265 2123.1 689.104 2107.69 689.104C2092.28 689.104 2080.8 694.265 2073.26 704.587C2065.72 714.842 2061.95 729.233 2061.95 747.76Z" fill="white"/>
<path d="M2199.38 764.632V682.057C2199.38 678.418 2201.02 676.599 2204.3 676.599H2213.35C2216.62 676.599 2218.26 678.418 2218.26 682.057V761.654C2218.26 780.181 2220.85 792.289 2226.04 797.979C2231.28 803.603 2239.81 806.415 2251.61 806.415C2263.42 806.415 2271.91 803.603 2277.09 797.979C2282.34 792.289 2284.96 780.181 2284.96 761.654V682.057C2284.96 678.418 2286.6 676.599 2289.88 676.599H2298.93C2302.21 676.599 2303.85 678.418 2303.85 682.057V764.632C2303.85 785.606 2299.06 800.394 2289.49 808.996C2279.98 817.597 2267.35 821.898 2251.61 821.898C2235.87 821.898 2223.22 817.597 2213.64 808.996C2204.13 800.394 2199.38 785.606 2199.38 764.632Z" fill="white"/>
<path d="M2342.21 818.921C2338.94 818.921 2337.3 817.101 2337.3 813.462V682.057C2337.3 678.418 2338.94 676.599 2342.21 676.599H2354.81C2359.4 676.599 2362.68 678.253 2364.64 681.561L2426.23 785.672H2426.62C2426.49 783.026 2426.42 780.379 2426.42 777.733V682.057C2426.42 678.418 2428.06 676.599 2431.34 676.599H2440.39C2443.67 676.599 2445.31 678.418 2445.31 682.057V813.462C2445.31 817.101 2443.67 818.921 2440.39 818.921H2431.73C2427.14 818.921 2423.87 817.267 2421.9 813.958L2356.38 703.495H2355.99C2356.12 706.141 2356.18 708.788 2356.18 711.435V813.462C2356.18 817.101 2354.54 818.921 2351.27 818.921H2342.21Z" fill="white"/>
<path d="M2483.68 818.921C2480.4 818.921 2478.76 817.101 2478.76 813.462V682.057C2478.76 678.418 2480.4 676.599 2483.68 676.599H2519.98C2547.78 676.599 2567.1 682.818 2577.92 695.257C2588.8 707.63 2594.25 725.065 2594.25 747.561C2594.25 770.057 2588.8 787.591 2577.92 800.163C2567.1 812.668 2547.78 818.921 2519.98 818.921H2483.68ZM2497.65 802.644H2519.09C2540.73 802.644 2555.29 798.012 2562.77 788.749C2570.31 779.486 2574.08 765.757 2574.08 747.561C2574.08 729.366 2570.31 715.669 2562.77 706.472C2555.29 697.275 2540.73 692.677 2519.09 692.677H2497.65V802.644Z" fill="white"/>
<path d="M525.132 736.864C526.112 736.794 527.096 736.918 528.028 737.229C528.96 737.539 529.823 738.029 530.563 738.672C531.306 739.315 531.915 740.099 532.355 740.977C532.794 741.856 533.056 742.813 533.126 743.792C533.196 744.772 533.071 745.755 532.762 746.688L502.853 836.418C502.224 838.299 500.876 839.856 499.102 840.743C497.329 841.63 495.275 841.777 493.393 841.15C491.51 840.524 489.955 839.176 489.067 837.401C488.18 835.627 488.032 833.572 488.66 831.691L518.57 741.962C518.879 741.03 519.369 740.168 520.014 739.427C520.657 738.684 521.439 738.075 522.318 737.635C523.196 737.196 524.153 736.934 525.132 736.864Z" fill="white"/>
<path d="M473.323 759.281C475.305 759.281 477.208 760.069 478.61 761.47C480.011 762.872 480.799 764.775 480.799 766.758C480.799 768.74 480.011 770.641 478.61 772.043L461.464 789.189L478.61 806.335C479.323 807.025 479.893 807.85 480.285 808.763C480.677 809.675 480.883 810.657 480.892 811.648C480.9 812.642 480.71 813.626 480.335 814.545C479.959 815.464 479.405 816.3 478.702 817.001C478.001 817.704 477.165 818.259 476.246 818.635C475.327 819.01 474.343 819.2 473.35 819.191C472.358 819.183 471.375 818.977 470.463 818.585C469.551 818.193 468.727 817.623 468.037 816.908L445.604 794.476C444.202 793.073 443.415 791.172 443.415 789.189C443.415 787.207 444.202 785.305 445.604 783.902L468.037 761.47C469.438 760.069 471.341 759.281 473.323 759.281Z" fill="white"/>
<path d="M548.098 759.281C550.08 759.281 551.982 760.069 553.385 761.47L575.817 783.902C577.218 785.305 578.006 787.207 578.006 789.189C578.006 791.172 577.218 793.073 575.817 794.476L553.385 816.908C552.694 817.623 551.869 818.193 550.957 818.585C550.045 818.977 549.063 819.183 548.071 819.191C547.078 819.2 546.094 819.01 545.175 818.635C544.256 818.259 543.42 817.704 542.719 817.001C542.016 816.3 541.46 815.464 541.085 814.545C540.709 813.626 540.52 812.642 540.528 811.648C540.537 810.657 540.744 809.675 541.136 808.763C541.528 807.851 542.097 807.024 542.812 806.335L559.957 789.189L542.812 772.043C541.409 770.641 540.622 768.74 540.622 766.758C540.622 764.775 541.409 762.872 542.812 761.47C544.212 760.069 546.115 759.281 548.098 759.281Z" fill="white"/>
<path fill-rule="evenodd" clip-rule="evenodd" d="M919.455 311.393C934.236 311.393 946.219 323.374 946.219 338.155C946.219 352.936 934.236 364.919 919.455 364.919C913.766 364.919 908.492 363.142 904.156 360.115L828.705 409.02L811.152 510.481L918.621 479.405C920.032 465.952 931.409 455.466 945.236 455.466C960.017 455.466 972 467.448 972 482.229C972 497.009 960.017 508.992 945.236 508.992C935.88 508.992 927.646 504.189 922.862 496.916L807.74 530.205L797.386 590.059L880.967 621.4C885.819 614.594 893.779 610.155 902.774 610.155C917.555 610.156 929.538 622.137 929.538 636.918C929.538 651.699 917.555 663.681 902.774 663.682C888.623 663.681 877.039 652.698 876.077 638.791L788.017 605.77L648.079 722.86C649.631 726.525 650.489 730.553 650.489 734.783V776.418L806.259 728.704C806.642 714.258 818.473 702.665 833.012 702.665C847.792 702.665 859.775 714.647 859.775 729.428C859.775 744.208 847.792 756.191 833.012 756.191C824.406 756.191 816.749 752.128 811.854 745.816L650.489 795.242V830.467L758.858 866.095L835.159 848.487C836.309 834.767 847.808 823.989 861.826 823.989C876.607 823.989 888.59 835.971 888.59 850.752C888.59 865.533 876.607 877.515 861.826 877.516C852.668 877.515 844.585 872.914 839.76 865.898L762.241 883.787C761.04 884.064 759.84 884.086 758.697 883.89C757.297 884.13 755.819 884.043 754.375 883.568L648.958 848.911C644.937 861.12 633.443 869.933 619.888 869.934H413.729C400.007 869.933 388.395 860.903 384.512 848.46L277.728 883.567C276.539 883.958 275.328 884.086 274.156 883.986C273.248 884.063 272.313 884.003 271.377 883.787L196.463 866.499C191.596 873.175 183.717 877.516 174.823 877.516C160.042 877.515 148.061 865.533 148.061 850.752C148.061 835.971 160.043 823.989 174.823 823.989C189.082 823.989 200.735 835.141 201.54 849.198L273.869 865.889L382.814 830.071C382.918 830.037 383.023 830.007 383.127 829.977V795.241L219.296 745.06C214.436 751.801 206.518 756.191 197.572 756.191C182.792 756.191 170.81 744.208 170.81 729.428C170.81 714.647 182.792 702.665 197.572 702.665C211.794 702.665 223.422 713.757 224.282 727.762L383.127 776.417V734.783C383.127 731.281 383.717 727.916 384.801 724.782L241.315 604.724L149.945 638.987C148.889 652.801 137.345 663.682 123.261 663.682C108.48 663.681 96.498 651.699 96.498 636.918C96.4983 622.137 108.48 610.156 123.261 610.155C132.323 610.155 140.332 614.661 145.174 621.553L232.642 588.753L222.735 531.49L100.607 496.175C95.9047 503.861 87.4334 508.992 77.7627 508.992C62.9821 508.992 51.0003 497.009 51 482.229C51.0002 467.448 62.9821 455.466 77.7627 455.466C91.277 455.466 102.449 465.482 104.266 478.496L219.323 511.767L201.507 408.777L125.629 359.598C121.163 362.939 115.618 364.919 109.611 364.919C94.8307 364.918 82.8486 352.936 82.8486 338.155C82.8489 323.375 94.8309 311.393 109.611 311.393C124.392 311.393 136.375 323.374 136.375 338.155C136.375 340.379 136.102 342.538 135.591 344.604L214.601 395.813C214.672 395.86 214.741 395.909 214.811 395.957C214.846 395.982 214.882 396.006 214.918 396.031C215.505 396.448 216.027 396.924 216.483 397.445C216.49 397.453 216.496 397.46 216.503 397.468C216.677 397.668 216.841 397.875 216.995 398.088C217.022 398.125 217.048 398.161 217.074 398.198C217.128 398.275 217.18 398.353 217.231 398.432C217.263 398.479 217.294 398.527 217.324 398.575C217.365 398.639 217.404 398.704 217.442 398.77C217.482 398.835 217.52 398.902 217.558 398.969C217.593 399.031 217.627 399.094 217.66 399.157C217.695 399.222 217.728 399.288 217.761 399.354C217.79 399.413 217.818 399.471 217.846 399.529C217.882 399.606 217.917 399.684 217.951 399.763C217.98 399.828 218.007 399.895 218.034 399.961C218.061 400.027 218.088 400.093 218.113 400.159C218.142 400.234 218.169 400.31 218.195 400.386C218.216 400.445 218.236 400.504 218.256 400.563C218.28 400.636 218.302 400.709 218.324 400.782C218.346 400.854 218.367 400.925 218.387 400.997C218.408 401.075 218.427 401.154 218.446 401.232C218.463 401.3 218.479 401.367 218.494 401.436C218.515 401.528 218.532 401.621 218.55 401.715C218.557 401.754 218.566 401.794 218.573 401.834L251.017 589.371L395.459 710.231C400.558 706.431 406.88 704.182 413.729 704.182H619.888C626.012 704.182 631.715 705.982 636.499 709.08L779.182 589.691L790.648 523.411C790.616 522.21 790.828 521.034 791.248 519.944L811.683 401.834C812.237 398.627 814.426 396.111 817.246 394.995L893.697 345.443C893.043 343.126 892.692 340.682 892.692 338.155C892.693 323.375 904.674 311.393 919.455 311.393ZM174.823 841.989C169.984 841.989 166.061 845.912 166.061 850.752C166.061 855.592 169.984 859.515 174.823 859.516C179.663 859.516 183.587 855.592 183.587 850.752C183.587 845.912 179.663 841.989 174.823 841.989ZM861.826 841.989C856.987 841.99 853.064 845.913 853.063 850.752C853.063 855.592 856.987 859.515 861.826 859.516C866.666 859.515 870.59 855.592 870.59 850.752C870.59 845.912 866.666 841.989 861.826 841.989ZM413.729 722.182C406.769 722.182 401.127 727.823 401.127 734.783V839.332C401.127 846.292 406.769 851.933 413.729 851.934H619.888C626.848 851.933 632.489 846.292 632.489 839.332V734.783C632.489 727.823 626.848 722.182 619.888 722.182H413.729ZM197.572 720.665C192.733 720.665 188.81 724.588 188.81 729.428C188.81 734.267 192.733 738.191 197.572 738.191C202.412 738.191 206.336 734.267 206.336 729.428C206.336 724.588 202.412 720.665 197.572 720.665ZM833.012 720.665C828.172 720.665 824.249 724.588 824.249 729.428C824.249 734.267 828.172 738.191 833.012 738.191C837.851 738.191 841.775 734.267 841.775 729.428C841.775 724.588 837.851 720.665 833.012 720.665ZM123.261 628.155C118.421 628.156 114.498 632.078 114.498 636.918C114.498 641.758 118.421 645.681 123.261 645.682C128.101 645.682 132.024 641.758 132.024 636.918C132.024 632.078 128.1 628.155 123.261 628.155ZM902.774 628.155C897.935 628.156 894.012 632.078 894.012 636.918C894.012 641.758 897.935 645.681 902.774 645.682C907.614 645.681 911.538 641.758 911.538 636.918C911.538 632.078 907.614 628.156 902.774 628.155ZM77.7627 473.466C72.9232 473.466 69.0002 477.389 69 482.229C69.0003 487.068 72.9232 490.992 77.7627 490.992C82.6024 490.992 86.5261 487.068 86.5264 482.229C86.5261 477.389 82.6024 473.466 77.7627 473.466ZM945.236 473.466C940.397 473.466 936.474 477.389 936.474 482.229C936.474 487.068 940.397 490.992 945.236 490.992C950.076 490.992 954 487.068 954 482.229C954 477.389 950.076 473.466 945.236 473.466ZM109.611 329.393C104.772 329.393 100.849 333.316 100.849 338.155C100.849 342.995 104.772 346.918 109.611 346.919C114.451 346.919 118.375 342.995 118.375 338.155C118.375 333.316 114.451 329.393 109.611 329.393ZM919.455 329.393C914.616 329.393 910.693 333.316 910.692 338.155C910.692 342.995 914.615 346.919 919.455 346.919C924.295 346.919 928.219 342.995 928.219 338.155C928.219 333.316 924.295 329.393 919.455 329.393Z" fill="white"/>
<path fill-rule="evenodd" clip-rule="evenodd" d="M497.489 494.153C502.183 494.154 505.989 497.959 505.989 502.653V571.606C505.989 574.452 504.564 577.109 502.194 578.685C499.824 580.26 496.823 580.545 494.199 579.443C478.112 572.691 463.643 562.596 451.752 549.827C439.863 537.058 430.823 521.905 425.236 505.376C424.359 502.782 424.786 499.923 426.383 497.698C427.979 495.473 430.55 494.153 433.289 494.153H497.489ZM445.865 511.153C450.527 521.053 456.702 530.197 464.192 538.241C471.443 546.027 479.808 552.658 488.989 557.933V511.153H445.865Z" fill="white"/>
<path fill-rule="evenodd" clip-rule="evenodd" d="M586.966 494.153C589.704 494.153 592.275 495.473 593.872 497.698C595.469 499.923 595.895 502.782 595.019 505.376C589.432 521.905 580.392 537.057 568.503 549.826C556.612 562.595 542.143 572.691 526.056 579.443C523.432 580.545 520.431 580.26 518.061 578.685C515.691 577.109 514.266 574.452 514.266 571.606V502.653C514.266 497.959 518.072 494.154 522.766 494.153H586.966ZM531.266 557.933C540.447 552.658 548.811 546.027 556.062 538.241C563.552 530.196 569.727 521.054 574.39 511.153H531.266V557.933Z" fill="white"/>
<path fill-rule="evenodd" clip-rule="evenodd" d="M405.862 494.16C409.219 494.288 412.2 496.388 413.441 499.531C421.816 520.732 433.639 540.403 448.427 557.75C450.876 560.623 451.136 564.768 449.065 567.926C446.995 571.083 443.09 572.496 439.479 571.395C400.339 559.46 364.836 537.861 336.24 508.594C333.85 506.148 333.158 502.507 334.485 499.355C335.812 496.204 338.9 494.153 342.319 494.153H405.536L405.862 494.16ZM363.892 511.153C380.216 525.003 398.411 536.464 417.929 545.202C410.939 534.406 404.884 523.015 399.839 511.153H363.892Z" fill="white"/>
<path fill-rule="evenodd" clip-rule="evenodd" d="M677.936 494.153C681.355 494.154 684.443 496.204 685.77 499.355C687.097 502.507 686.405 506.148 684.015 508.594C655.419 537.861 619.916 559.46 580.776 571.395C577.165 572.496 573.26 571.083 571.189 567.927C569.119 564.77 569.378 560.626 571.826 557.752C586.606 540.402 598.42 520.732 606.788 499.533L606.913 499.231C608.265 496.155 611.314 494.153 614.694 494.153H677.936ZM620.393 511.153C615.349 523.018 609.297 534.41 602.31 545.209C621.833 536.47 640.034 525.007 656.363 511.153H620.393Z" fill="white"/>
<path fill-rule="evenodd" clip-rule="evenodd" d="M376.493 342.497C381.138 342.497 384.922 346.225 384.992 350.869C385.625 392.922 392.215 434.675 404.562 474.881C405.354 477.459 404.875 480.26 403.272 482.429C401.67 484.597 399.133 485.877 396.437 485.877H321.013C318.315 485.877 315.776 484.596 314.174 482.425C286.035 444.304 269.712 398.758 267.229 351.443C267.106 349.115 267.946 346.838 269.551 345.146C271.156 343.455 273.385 342.497 275.717 342.497H376.493ZM284.856 359.497C288.5 398.855 302.454 436.592 325.354 468.877H385.084C375.096 433.228 369.424 396.505 368.196 359.497H284.856Z" fill="white"/>
<path fill-rule="evenodd" clip-rule="evenodd" d="M497.489 342.497C502.183 342.497 505.989 346.303 505.989 350.997V477.377C505.989 482.071 502.183 485.877 497.489 485.877H423.304C419.641 485.877 416.39 483.53 415.236 480.053C401.435 438.442 394.02 394.98 393.245 351.147C393.205 348.867 394.083 346.667 395.681 345.04C397.279 343.413 399.464 342.497 401.744 342.497H497.489ZM410.486 359.497C411.914 396.637 418.304 433.423 429.488 468.877H488.989V359.497H410.486Z" fill="white"/>
<path fill-rule="evenodd" clip-rule="evenodd" d="M618.511 342.497C620.791 342.497 622.976 343.413 624.574 345.04C626.172 346.667 627.05 348.867 627.01 351.147C626.235 394.98 618.82 438.442 605.019 480.053C603.865 483.53 600.614 485.877 596.951 485.877H522.766C518.071 485.877 514.266 482.071 514.266 477.377V350.997C514.266 346.303 518.071 342.497 522.766 342.497H618.511ZM531.266 468.877H590.767C601.951 433.423 608.34 396.637 609.769 359.497H531.266V468.877Z" fill="white"/>
<path fill-rule="evenodd" clip-rule="evenodd" d="M744.538 342.497C746.87 342.497 749.099 343.455 750.704 345.146C752.309 346.838 753.149 349.115 753.026 351.443C750.543 398.758 734.22 444.304 706.081 482.425C704.479 484.596 701.94 485.877 699.242 485.877H623.819C621.123 485.877 618.586 484.597 616.983 482.428C615.381 480.259 614.902 477.458 615.694 474.88C627.988 434.872 634.581 393.331 635.276 351.485C635.267 351.324 635.262 351.161 635.262 350.997C635.262 346.303 639.067 342.497 643.762 342.497H744.538ZM652.081 359.497C650.846 396.506 645.169 433.23 635.175 468.877H694.901C717.801 436.592 731.755 398.855 735.398 359.497H652.081Z" fill="white"/>
<path fill-rule="evenodd" clip-rule="evenodd" d="M396.437 190.841C399.133 190.841 401.671 192.121 403.273 194.29C404.876 196.459 405.354 199.26 404.562 201.838C392.266 241.845 385.673 283.386 384.978 325.231C384.987 325.393 384.993 325.557 384.993 325.721C384.993 330.268 381.422 333.981 376.931 334.209L376.493 334.221H275.717C273.385 334.221 271.156 333.263 269.551 331.571C267.946 329.88 267.106 327.603 267.229 325.274C269.712 277.96 286.035 232.413 314.174 194.293L314.484 193.896C316.093 191.967 318.483 190.841 321.013 190.841H396.437ZM325.354 207.841C302.454 240.126 288.5 277.863 284.856 317.221H368.174C369.409 280.212 375.087 243.488 385.082 207.841H325.354Z" fill="white"/>
<path fill-rule="evenodd" clip-rule="evenodd" d="M497.489 190.841C502.183 190.841 505.989 194.647 505.989 199.341V325.721C505.989 330.415 502.183 334.22 497.489 334.221H401.744C399.464 334.221 397.279 333.304 395.681 331.678C394.083 330.051 393.205 327.85 393.245 325.57C394.02 281.738 401.435 238.276 415.236 196.665L415.351 196.343C416.593 193.044 419.755 190.841 423.304 190.841H497.489ZM429.488 207.841C418.304 243.294 411.914 280.08 410.486 317.221H488.989V207.841H429.488Z" fill="white"/>
<path fill-rule="evenodd" clip-rule="evenodd" d="M597.293 190.848C600.815 190.989 603.901 193.297 605.019 196.665C618.82 238.276 626.235 281.738 627.01 325.57C627.05 327.85 626.172 330.051 624.574 331.678C622.976 333.304 620.791 334.221 618.511 334.221H522.766C518.072 334.22 514.266 330.415 514.266 325.721V199.341C514.266 194.647 518.071 190.841 522.766 190.841H596.951L597.293 190.848ZM531.266 317.221H609.769C608.34 280.08 601.951 243.294 590.767 207.841H531.266V317.221Z" fill="white"/>
<path fill-rule="evenodd" clip-rule="evenodd" d="M699.242 190.841C701.94 190.841 704.479 192.122 706.081 194.293C734.22 232.413 750.543 277.96 753.026 325.274C753.149 327.603 752.309 329.88 750.704 331.571C749.099 333.263 746.87 334.221 744.538 334.221H643.762C639.117 334.221 635.333 330.492 635.263 325.848C634.63 283.795 628.041 242.042 615.694 201.836C614.903 199.258 615.382 196.458 616.984 194.289C618.587 192.121 621.123 190.841 623.819 190.841H699.242ZM635.172 207.841C645.159 243.489 650.83 280.213 652.058 317.221H735.398C731.755 277.863 717.801 240.126 694.901 207.841H635.172Z" fill="white"/>
<path fill-rule="evenodd" clip-rule="evenodd" d="M441.958 104.953C445.273 104.953 448.285 106.88 449.675 109.89C451.064 112.899 450.578 116.442 448.429 118.965C433.649 136.315 421.835 155.985 413.467 177.185C412.185 180.431 409.05 182.563 405.561 182.563H342.295C338.875 182.563 335.788 180.514 334.461 177.362C333.134 174.21 333.825 170.57 336.215 168.124C364.81 138.857 400.314 117.258 439.454 105.323L439.757 105.236C440.466 105.048 441.198 104.953 441.933 104.953H441.958ZM417.954 131.492C398.418 140.233 380.205 151.702 363.867 165.563H399.863C404.909 153.694 410.962 142.295 417.954 131.492Z" fill="white"/>
<path fill-rule="evenodd" clip-rule="evenodd" d="M494.199 97.2744C496.823 96.173 499.824 96.4577 502.194 98.0332C504.564 99.6087 505.989 102.266 505.989 105.111V174.063C505.989 178.758 502.183 182.563 497.489 182.563H433.289C430.55 182.563 427.979 181.245 426.383 179.02C424.786 176.795 424.359 173.936 425.236 171.342C430.823 154.813 439.863 139.661 451.752 126.892C463.643 114.123 478.112 104.027 494.199 97.2744ZM488.989 118.783C479.807 124.058 471.444 130.69 464.193 138.477C456.703 146.521 450.527 155.663 445.865 165.563H488.989V118.783Z" fill="white"/>
<path fill-rule="evenodd" clip-rule="evenodd" d="M518.061 98.0332C520.431 96.4577 523.432 96.173 526.056 97.2744C541.64 103.816 555.706 113.494 567.38 125.701L568.503 126.891C580.392 139.66 589.432 154.813 595.019 171.342C595.895 173.936 595.469 176.795 593.872 179.02C592.275 181.245 589.704 182.563 586.966 182.563H522.766C518.071 182.563 514.266 178.758 514.266 174.063V105.111C514.266 102.266 515.691 99.6087 518.061 98.0332ZM531.266 165.563H574.389C569.726 155.663 563.551 146.52 556.061 138.476C548.81 130.69 540.447 124.058 531.266 118.783V165.563Z" fill="white"/>
<path fill-rule="evenodd" clip-rule="evenodd" d="M571.188 108.792C573.259 105.634 577.165 104.222 580.776 105.323C619.916 117.258 655.419 138.857 684.015 168.124C686.405 170.57 687.097 174.21 685.77 177.362C684.443 180.514 681.355 182.563 677.936 182.563H614.719C611.23 182.563 608.095 180.432 606.813 177.187C598.439 155.986 586.618 136.314 571.829 118.968C569.379 116.095 569.118 111.95 571.188 108.792ZM602.326 131.516C609.316 142.312 615.371 153.702 620.416 165.563H656.362C640.038 151.714 621.843 140.253 602.326 131.516Z" fill="white"/>
<path fill-rule="evenodd" clip-rule="evenodd" d="M510.127 69.5C550.045 69.5 589.459 78.4046 625.499 95.5684C660.857 112.406 692.091 136.775 717.02 166.955C718.494 167.923 719.648 169.336 720.292 171.005C758.283 218.489 779.001 277.506 779.001 338.358C779.001 399.158 758.318 458.126 720.39 505.589C719.749 507.331 718.553 508.802 717.018 509.795C692.094 539.96 660.869 564.317 625.523 581.148C589.485 598.312 550.07 607.218 510.152 607.218C470.236 607.218 430.821 598.313 394.781 581.149C359.423 564.312 328.188 539.941 303.261 509.761C301.751 508.769 300.574 507.311 299.94 505.589C262.011 458.125 241.33 399.158 241.33 338.358C241.33 277.559 262.011 218.591 299.94 171.128C300.567 169.427 301.722 167.981 303.206 166.99C328.138 136.794 359.384 112.412 394.756 95.5684C430.796 78.4047 470.209 69.5001 510.127 69.5ZM510.127 86.5C472.738 86.5001 435.822 94.84 402.065 110.916C368.386 126.954 338.699 150.289 315.16 179.224C314.966 179.539 314.752 179.843 314.517 180.133C278.17 224.856 258.33 280.729 258.33 338.358C258.33 395.988 278.17 451.861 314.517 496.585C314.715 496.829 314.897 497.085 315.066 497.348C338.624 526.35 368.353 549.736 402.09 565.801C435.846 581.877 472.765 590.218 510.152 590.218C547.542 590.218 584.459 581.877 618.214 565.801C651.97 549.726 681.716 526.322 705.282 497.296C705.304 497.269 705.327 497.244 705.349 497.218C705.494 497.001 705.649 496.789 705.814 496.585C742.16 451.861 762.001 395.988 762.001 338.358C762.001 280.966 742.32 225.318 706.26 180.688C705.869 180.284 705.518 179.842 705.213 179.368C681.653 150.367 651.925 126.982 618.189 110.917C584.433 94.8409 547.516 86.5 510.127 86.5Z" fill="white"/>
</svg>
