<svg width="207" height="207" viewBox="0 0 207 207" fill="none" xmlns="http://www.w3.org/2000/svg">
<g clip-path="url(#clip0_296_217)">
<path fill-rule="evenodd" clip-rule="evenodd" d="M50.6883 39.6753C48.8057 39.6457 46.9793 40.317 45.5639 41.5586C44.1485 42.8003 43.2452 44.5237 43.0293 46.3941C43.0632 47.5231 43.3383 48.6317 43.8361 49.6456C44.3339 50.6595 45.0428 51.5551 45.9153 52.2724C46.7878 52.9897 47.8037 53.512 48.8947 53.8042C49.9857 54.0965 51.1266 54.1519 52.2408 53.9669C53.2829 53.7491 54.2657 53.309 55.1222 52.6767C55.9786 52.0444 56.6886 51.2347 57.2036 50.303C57.7186 49.3713 58.0265 48.3394 58.1063 47.2778C58.1861 46.2162 58.0359 45.1499 57.6659 44.1516C57.0448 42.8223 56.0597 41.6962 54.8247 40.904C53.5897 40.1117 52.1555 39.6857 50.6883 39.6753ZM92.2781 39.6753C90.4088 39.665 88.6014 40.345 87.2024 41.5848C85.8034 42.8247 84.9112 44.5372 84.6967 46.3941C84.7306 47.5231 85.0057 48.6317 85.5035 49.6456C86.0013 50.6595 86.7102 51.5551 87.5827 52.2724C88.4552 52.9897 89.471 53.512 90.562 53.8042C91.6531 54.0965 92.794 54.1519 93.9082 53.9669C94.9495 53.7475 95.9315 53.3066 96.7874 52.6741C97.6433 52.0416 98.3531 51.2323 98.8685 50.3013C99.384 49.3702 99.6931 48.3391 99.7747 47.278C99.8564 46.2169 99.7088 45.1506 99.3419 44.1516C98.714 42.8077 97.7141 41.6719 96.4607 40.8785C95.2073 40.0852 93.7528 39.6676 92.2694 39.6753M136.102 156.855C135.797 156.547 135.434 156.303 135.035 156.136C134.635 155.969 134.206 155.883 133.773 155.883C133.34 155.883 132.911 155.969 132.511 156.136C132.112 156.303 131.749 156.547 131.444 156.855L122.146 167.006C118.246 163.924 114.429 160.738 110.701 157.45C108.717 155.725 106.647 154.095 104.586 152.456L98.212 147.634C93.0457 143.848 87.8879 140.234 82.9803 136.534C82.6809 136.187 82.3122 135.907 81.8979 135.712C81.4836 135.516 81.0329 135.41 80.575 135.399C80.117 135.389 79.6619 135.474 79.239 135.65C78.8161 135.826 78.4349 136.089 78.1198 136.422C77.8048 136.754 77.563 137.149 77.41 137.581C77.257 138.013 77.1963 138.472 77.2317 138.929C77.267 139.386 77.3978 139.83 77.6154 140.233C77.8331 140.636 78.1328 140.989 78.4953 141.269C82.6353 146.004 87.1117 150.912 91.5018 155.561C93.497 157.51 95.59 159.347 97.7808 161.072C99.9428 162.855 102.211 164.491 104.586 165.98C108.697 168.314 112.944 170.35 117.325 172.086L114.315 175.278C113.914 175.79 113.375 176.179 112.762 176.399C111.172 176.535 109.573 176.268 108.114 175.623C104.828 174.485 101.634 173.101 98.557 171.483C93.9082 169.413 89.3455 166.834 84.7829 164.255C80.2203 161.667 76.1752 158.916 71.6126 155.647C65.9537 151.544 60.7569 146.839 56.1134 141.614C55.6506 141.007 54.9689 140.603 54.2135 140.491C53.458 140.378 52.6884 140.564 52.0683 141.01C51.4741 141.486 51.0879 142.173 50.9913 142.928C50.8947 143.683 51.0954 144.446 51.5508 145.056C62.8666 157.396 75.4803 168.48 89.173 178.115C94.2797 181.252 99.7438 183.765 105.448 185.602C107.093 185.947 108.758 186.119 110.442 186.119C113.892 185.688 117.153 184.998 117.153 184.48C118.027 184.112 118.832 183.627 119.568 183.023C121.114 181.298 122.549 179.489 123.871 177.598L136.438 161.245C136.958 160.608 137.212 159.795 137.148 158.976C137.084 158.157 136.706 157.394 136.093 156.846" fill="white"/>
<path fill-rule="evenodd" clip-rule="evenodd" d="M113.367 190.086C108.632 190.776 109.744 193.614 108.89 194.304H103.034C98.6471 194.959 94.2105 195.218 89.7773 195.08C87.7245 195.08 85.7321 194.416 84.0934 193.183C83.4476 192.785 82.9599 192.175 82.7134 191.458C82.7134 189.992 82.0234 188.353 81.6784 186.895C81.4557 182.936 80.5845 179.04 79.0995 175.364C78.2023 174.335 77.0898 173.515 75.8407 172.964C74.5917 172.412 73.2368 172.142 71.8718 172.172C67.7418 171.901 63.6318 171.383 59.5639 170.62C55.4641 169.941 51.4161 169.024 47.4199 167.868C45.1255 167.306 42.8812 166.556 40.7096 165.626C38.6626 164.763 36.7076 163.731 34.8446 162.53C32.029 160.714 29.3031 158.762 26.6768 156.682C24.3361 154.794 22.2998 152.557 20.6393 150.049C19.5672 148.403 18.8369 146.558 18.4916 144.624C17.8879 141.094 17.6291 137.534 17.7154 133.946V108.899L16.6804 68.8621C23.8506 71.6681 31.1704 74.0227 38.6396 75.926C42.4576 76.6505 46.3044 77.168 50.1799 77.4785C54.0899 77.996 58.02 78.2547 61.9703 78.2547C71.1645 78.3755 80.3415 77.513 89.346 75.6672C89.8021 75.6572 90.251 75.5519 90.6639 75.358C91.0768 75.1641 91.4445 74.8859 91.7434 74.5414C92.0424 74.1969 92.2659 73.7936 92.3996 73.3574C92.5333 72.9213 92.5743 72.4621 92.5199 72.0092C92.4655 71.5563 92.3169 71.1198 92.0836 70.7278C91.8504 70.3357 91.5377 69.9969 91.1657 69.733C90.7936 69.469 90.3704 69.2859 89.9234 69.1953C89.4763 69.1048 89.0152 69.1088 88.5698 69.2071C81.135 69.5694 73.7031 69.4544 66.2741 68.8621C59.3914 68.2584 52.5863 67.1371 45.7035 66.1884C35.7158 64.817 25.8143 63.782 16.0853 61.9794C16.0853 59.7369 16.689 57.4944 17.2065 55.3467C18.1294 51.7932 19.5784 48.4036 21.5104 45.2727C25.8844 38.127 32.1382 32.3209 39.5884 28.4885C44.5523 25.9056 49.8119 23.9361 55.2514 22.6235C62.1514 20.9416 69.2411 20.0964 76.3481 20.1309C83.4737 20.0633 90.5819 20.8451 97.5225 22.4596C101.841 23.5981 105.975 25.2052 109.925 27.281C115.882 30.7137 121.621 34.4742 127.141 38.5625C127.839 39.075 128.712 39.29 129.569 39.1608C130.425 39.0315 131.196 38.5683 131.712 37.8725C131.977 37.531 132.17 37.1392 132.279 36.7209C132.388 36.3026 132.411 35.8664 132.347 35.4389C132.282 35.0115 132.132 34.6015 131.904 34.2341C131.676 33.8666 131.376 33.5492 131.022 33.3012C125.546 28.6006 119.795 24.2315 113.798 20.2171C115.218 19.1821 116.512 18.0062 117.679 16.6895C118.581 15.5106 119.358 14.2417 119.999 12.9031C124.562 4.29536 124.217 3.51911 123.018 2.13911C121.811 0.759112 120.517 -1.12976 111.9 6.45161C111.071 7.18003 110.346 8.01871 109.744 8.94424C109.066 9.80099 108.551 10.7497 108.2 11.7905C107.625 13.458 107.252 15.1772 107.079 16.9482C104.873 15.7619 102.604 14.6966 100.283 13.757C92.6577 11.2339 84.7179 9.78821 76.6931 9.46174C68.6074 9.12936 60.5163 9.97189 52.6725 11.963C51.12 12.3942 49.8263 13.3344 48.2824 13.7656C48.1774 12.3329 47.9172 10.9158 47.5061 9.53936C47.1059 8.54277 46.5531 7.61454 45.8674 6.78799C45.2666 5.85942 44.5411 5.0178 43.7111 4.28674C40.3646 1.54399 33.9131 -2.24239 31.8431 1.71649C30.7219 3.87274 31.8431 3.61399 35.7244 10.928C36.2936 12.1182 36.9836 13.2395 37.7944 14.2917C38.6396 15.2865 39.6143 16.149 40.7183 16.8792C38.6483 17.8194 36.4058 18.3369 34.422 19.4581C25.8727 24.604 18.9513 32.0607 14.4551 40.9689C12.865 44.1294 11.7047 47.4884 11.0051 50.9566C7.9174 64.9032 11.8676 48.5416 7.65865 108.209C7.2274 112.513 6.8824 116.817 6.79615 121.121C6.7099 125.425 6.79615 129.729 6.79615 134.033C6.7559 138.339 7.07215 142.617 7.7449 146.867C8.52115 150.092 9.85802 153.146 11.7038 155.906C13.6588 158.579 15.9243 160.96 18.5003 163.047C20.5703 164.588 22.7236 165.997 24.9604 167.273C23.3044 172.04 22.1764 176.975 21.5966 181.988C21.2171 185.518 21.2171 189.049 21.5966 192.579C21.8266 194.534 22.2004 196.457 22.7179 198.349C23.2785 199.884 24.1928 201.273 25.3916 202.394C27.9791 204.576 31.0928 206.034 34.4306 206.612C38.2601 207.129 42.1414 207.129 45.9623 206.612C47.923 206.152 49.8205 205.491 51.6548 204.628C58.7963 202.386 61.7201 202.731 64.5664 193.01C65.0494 191.849 65.3656 190.641 65.5151 189.388C65.6478 188.158 65.6478 186.918 65.5151 185.688C64.7655 183.093 63.8138 180.561 62.6689 178.115C65.7739 178.115 68.8703 178.632 71.8804 178.632C72.2744 178.665 72.6709 178.613 73.0429 178.479C73.4149 178.345 73.7538 178.133 74.0366 177.856V188.103C73.9602 190.491 74.1046 192.882 74.4679 195.244C74.9681 197.409 76.0376 199.401 77.5643 201.023C80.7124 204.231 84.9473 206.163 89.4409 206.439C94.7225 206.544 99.9941 205.935 105.113 204.628C107.367 204.283 109.577 203.737 111.745 202.989C113.252 202.502 114.613 201.645 115.704 200.497C117.067 198.729 117.895 196.616 118.119 194.39C117.774 191.717 116.825 189.388 113.375 190.078M56.6314 178.193C55.7945 181.025 55.1036 183.898 54.5614 186.8C54.4406 188.353 54.4406 189.905 54.5614 191.458V196.012C53.0603 196.573 51.5053 196.978 49.9211 197.219C48.3427 197.351 46.7559 197.351 45.1774 197.219C42.6049 197.038 40.0467 196.693 37.5184 196.184C33.4733 195.236 31.3256 196.184 30.2044 179.573C30.0403 176.504 30.0403 173.429 30.2044 170.361C32.4929 171.603 34.8734 172.635 37.3459 173.457C39.9104 174.32 42.5238 175.01 45.186 175.527C48.8861 176.217 52.7588 176.735 56.5451 177.252C56.8039 177.77 56.6314 177.942 56.6314 178.193Z" fill="white"/>
<path fill-rule="evenodd" clip-rule="evenodd" d="M199.202 75.4087C198.383 73.9534 197.367 72.6182 196.183 71.4412L187.584 62.3246C180.78 56.4877 173.619 51.0809 166.142 46.1354C141.604 30.2051 141.777 26.5049 111.9 57.8396C106.965 63.1226 102.255 68.61 97.7804 74.2874C91.1564 82.8952 85.1275 91.5029 78.2448 99.6881C77.8993 99.9386 77.6128 100.261 77.405 100.634C77.1973 101.007 77.0734 101.421 77.0419 101.846C77.0105 102.272 77.0724 102.699 77.2231 103.098C77.3739 103.497 77.61 103.859 77.9149 104.157C78.2198 104.456 78.5862 104.684 78.9884 104.827C79.3907 104.969 79.8192 105.022 80.244 104.981C80.6688 104.941 81.0797 104.808 81.4479 104.593C81.8162 104.377 82.133 104.084 82.3761 103.733C89.1989 97.7458 95.7766 91.4847 102.093 84.9652C104.422 82.5502 106.742 80.1352 108.976 77.6426C111.218 75.1413 115.522 70.2423 118.791 66.4559C122.068 62.6609 125.769 57.8396 129.382 54.1394C133.586 59.5732 138.177 64.6533 143.157 69.3798C146.917 72.6401 150.847 75.6818 154.947 78.5051C160.984 82.7313 167.263 86.4228 173.197 90.6491C173.57 91.038 174.034 91.3264 174.548 91.4875C175.062 91.6485 175.608 91.677 176.135 91.5703C176.663 91.4636 177.155 91.2251 177.566 90.877C177.977 90.5289 178.293 90.0826 178.485 89.5796C178.734 88.9792 178.798 88.3183 178.671 87.681C178.544 87.0436 178.229 86.4586 177.769 86.0002C171.99 80.2214 166.228 74.3737 159.941 68.7761C156.251 65.6166 152.462 62.5733 148.582 59.6508C144.7 56.7183 139.198 52.8543 134.635 49.3181C137.338 46.2878 140.207 43.4186 143.243 40.7103C147.892 43.7291 152.541 46.9117 157.017 50.3531C161.493 53.7944 166.487 58.3571 171.136 62.4108C174.241 65.1622 177.337 67.8273 180.348 71.0186L188.438 79.1088L189.732 79.8851C189.354 82.5894 188.445 85.1924 187.058 87.5441C182.668 95.4704 175.009 102.957 171.222 109.848C170.925 110.208 170.708 110.628 170.585 111.078C170.463 111.529 170.439 112.001 170.514 112.462C170.588 112.922 170.761 113.362 171.019 113.751C171.278 114.14 171.617 114.469 172.013 114.716C172.409 114.964 172.853 115.123 173.316 115.185C173.779 115.247 174.25 115.209 174.697 115.074C175.144 114.939 175.557 114.709 175.908 114.402C176.259 114.094 176.541 113.715 176.734 113.29C181.296 106.83 189.732 100.033 194.984 92.4517C197.805 88.5999 199.611 84.1004 200.237 79.3676C200.338 77.9672 199.974 76.5727 199.202 75.4001M67.6533 124.476L61.1069 127.323C56.6835 128.56 52.0495 128.854 47.5053 128.185C40.1907 126.684 33.1412 124.1 26.5896 120.517C26.2058 120.308 25.7839 120.178 25.3488 120.134C24.9137 120.09 24.4742 120.134 24.0563 120.262C23.6383 120.391 23.2504 120.602 22.9152 120.883C22.58 121.163 22.3044 121.508 22.1046 121.897C21.8983 122.274 21.7703 122.689 21.7282 123.117C21.6861 123.545 21.7309 123.976 21.8598 124.386C21.9886 124.796 22.199 125.176 22.4782 125.503C22.7574 125.829 23.0997 126.096 23.4846 126.288C30.3253 130.893 37.8093 134.462 45.694 136.879C51.4734 138.32 57.4956 138.496 63.3494 137.397C65.4424 137.063 67.4779 136.517 69.4559 135.758C70.8646 135.217 72.2159 134.556 73.5096 133.774C74.7171 132.998 75.8643 132.135 76.951 131.187C78.0723 130.088 79.0785 128.887 79.9698 127.581C82.3965 124.597 83.6409 120.824 83.4659 116.982C83.291 113.139 81.7089 109.495 79.021 106.743C72.1763 101.101 63.8224 97.5972 55.0004 96.6693C50.5154 95.9793 46.384 95.2893 41.3901 94.8581C38.3056 94.4606 35.2018 94.2303 32.0924 94.1681C31.7166 94.1337 31.3378 94.1768 30.9794 94.2946C30.6209 94.4125 30.2904 94.6025 30.0083 94.8531C29.7262 95.1037 29.4985 95.4095 29.3392 95.7515C29.18 96.0936 29.0925 96.4646 29.0823 96.8418C29.0469 97.2226 29.0886 97.6067 29.205 97.971C29.3214 98.3354 29.51 98.6725 29.7595 98.9623C30.0091 99.2521 30.3145 99.4887 30.6575 99.6579C31.0006 99.827 31.3742 99.9253 31.756 99.9468C34.6483 100.292 37.5175 100.809 40.3638 101.499C44.7539 102.439 48.9715 103.647 53.3616 104.854C59.8304 106.234 65.7989 109.4 70.5771 113.98C71.4787 115.052 71.9729 116.408 71.9729 117.809C71.9729 119.21 71.4787 120.566 70.5771 121.639L67.6533 124.476ZM165.711 115.351C158.749 113.69 151.455 114.08 144.709 116.472C143.283 117.047 141.932 117.766 140.655 118.629L138.413 120.354C138.042 120.534 137.72 120.8 137.473 121.13C137.065 121.524 136.759 122.01 136.579 122.547C136.398 123.085 136.35 123.658 136.438 124.218C134.566 129.583 133.408 135.171 132.996 140.838C132.608 145.711 133.566 150.584 135.756 154.957C137.136 157.51 139.362 159.511 142.035 160.641C145.623 162.064 149.565 162.34 153.317 161.417C158.7 160.122 163.6 157.311 167.436 153.318C171.054 149.596 173.97 145.251 176.044 140.493C177.073 137.986 177.82 135.404 178.286 132.748C178.764 130.563 178.764 128.3 178.286 126.115C177.35 123.357 175.688 120.902 173.476 119.008C171.263 117.113 168.581 115.85 165.711 115.351ZM167.781 132.144C167.263 133.639 166.66 135.102 165.97 136.534C164.417 140.148 162.261 143.46 159.596 146.349C157.267 148.92 154.3 150.817 150.988 151.861C149.492 152.358 147.908 152.534 146.339 152.378C145.794 152.333 145.266 152.172 144.789 151.904C144.313 151.636 143.9 151.268 143.579 150.826C141.728 148.036 140.686 144.788 140.569 141.442C140.372 136.342 140.895 131.241 142.122 126.288C142.812 125.753 143.53 125.264 144.278 124.821C145.163 124.31 146.109 123.936 147.115 123.7C151.525 122.609 156.135 122.609 160.545 123.7C164.167 124.563 167.522 126.115 168.212 129.565C168.2 130.442 168.055 131.311 167.781 132.144Z" fill="white"/>
</g>
<defs>
<clipPath id="clip0_296_217">
<rect width="207" height="207" fill="white"/>
</clipPath>
</defs>
</svg>
