<svg width="431" height="431" viewBox="0 0 431 431" fill="none" xmlns="http://www.w3.org/2000/svg">
<g clip-path="url(#clip0_328_70)">
<path d="M191.543 362.489C186.436 350.266 177.967 339.743 167.119 332.14C160.924 327.831 154.239 324.274 147.204 321.544C155.573 313.534 161.411 303.248 163.996 291.955C166.582 280.663 165.801 268.861 161.75 258.008C156.136 241.853 144.446 228.523 129.162 220.848C113.879 213.173 96.2062 211.757 79.8959 216.901C69.2093 220.214 59.6155 226.351 52.1274 234.664C44.6393 242.977 39.5347 253.158 37.3526 264.131C34.6392 274.71 34.7539 285.817 37.6851 296.338C40.6163 306.859 46.2611 316.424 54.0538 324.076L55.3109 325.154C50.7821 327.04 46.4001 329.261 42.2013 331.798C36.9216 335.198 32.0728 339.149 27.6551 343.651C23.171 348.276 19.1418 353.322 15.623 358.718C8.26197 370.645 3.04141 383.766 0.196766 397.49C-0.197344 398.966 -0.00642945 400.537 0.729681 401.875C1.46579 403.213 2.69024 404.216 4.1476 404.673C5.60028 405.123 7.172 404.979 8.51843 404.272C9.86486 403.565 10.8762 402.353 11.3309 400.902C16.0635 389.31 22.4776 378.479 30.3668 368.757C33.5993 364.806 37.1909 361.034 40.9622 357.263C44.7334 353.492 48.1276 350.259 52.258 346.865C57.9328 342.029 63.9189 337.599 70.2163 333.576C71.7727 334.175 73.3889 334.594 75.0651 334.833C86.3925 336.906 98.0021 336.906 109.33 334.833C110.231 334.675 111.079 334.298 111.799 333.734C112.52 333.17 113.09 332.437 113.46 331.601C113.225 332.361 113.225 333.175 113.46 333.935C114.021 335.33 115.105 336.45 116.482 337.054C117.858 337.658 119.417 337.699 120.823 337.168C125.195 335.603 129.405 333.619 133.394 331.242C140.733 335.911 147.617 341.179 154.046 347.045C157.853 350.637 161.439 354.468 164.803 358.538C168.215 362.585 171.268 366.895 173.962 371.468C180.337 382.854 185.509 394.886 189.406 407.349C189.534 408.563 190.044 409.705 190.865 410.609C191.685 411.513 192.771 412.132 193.967 412.377C194.762 412.537 195.581 412.527 196.371 412.348C197.161 412.169 197.905 411.825 198.553 411.338C199.2 410.851 199.738 410.233 200.13 409.524C200.522 408.815 200.76 408.031 200.827 407.223C200.907 406.414 200.803 405.598 200.522 404.835C199.532 390.368 196.509 376.113 191.543 362.489ZM117.95 326.572C117.168 326.878 116.469 327.362 115.908 327.986C115.347 328.609 114.939 329.355 114.717 330.164V329.266C114.629 328.603 114.41 327.964 114.072 327.387C113.734 326.809 113.284 326.305 112.749 325.904C112.214 325.502 111.604 325.212 110.955 325.049C110.306 324.886 109.632 324.855 108.97 324.956C39.328 331.96 54.0538 273.631 54.0538 268.962C55.7471 261.317 59.426 254.254 64.7197 248.484C70.0133 242.714 76.7346 238.442 84.2059 236.098C96.0058 232.09 108.894 232.761 120.214 237.973C131.534 243.186 140.423 252.542 145.049 264.113C147.388 269.941 148.541 276.178 148.441 282.457C148.341 288.736 146.99 294.932 144.467 300.683C141.943 306.433 138.298 311.623 133.745 315.948C129.192 320.273 123.822 323.647 117.95 325.872V326.572ZM419.147 133.969L414.657 130.916C419.25 120.43 422.45 109.388 424.175 98.0706C426.222 82.9898 424.239 67.636 418.428 53.5699C413.964 44.5845 407.414 36.7983 399.326 30.8623C391.237 24.9262 381.845 21.0127 371.934 19.449C361.982 17.677 351.746 18.389 342.135 21.5217C332.524 24.6544 323.835 30.111 316.838 37.4073C310.784 44.3726 306.093 52.4139 303.01 61.1124C298.987 72.7853 295.935 84.8174 293.851 96.9931L281.999 94.8381H280.742C279.769 94.5877 278.744 94.624 277.792 94.9426C276.839 95.2612 275.999 95.8486 275.372 96.6339C268.415 104.991 262.393 114.084 257.414 123.751C252.278 133.197 247.788 142.948 243.945 153.005C237.8 164.681 233.044 177.037 229.776 189.82C228.465 196.59 229.094 203.63 231.572 210.077C234.176 216.093 238.181 221.39 243.245 225.521C249.979 230.855 257.414 235.254 265.334 238.63C278.814 244.976 292.69 250.303 306.961 254.613C321.208 258.876 335.688 262.168 350.402 264.49C358.292 265.963 366.253 266.622 374.287 266.466C380.521 266.285 386.642 264.753 392.227 261.976C399.98 258.066 406.275 251.771 410.186 244.018C414.472 234.033 417.824 223.737 420.242 213.13C426.366 195.979 429.994 178.021 430.999 159.829C431.037 154.914 429.994 150.051 427.946 145.582C425.898 141.114 422.894 137.15 419.147 133.969ZM315.581 65.9431C318.67 59.1729 323.052 53.067 328.511 47.9848C333.949 43.3328 340.41 40.0313 347.366 38.3492C354.322 36.6672 361.577 36.6521 368.54 38.3053C375.58 39.3441 382.285 41.9905 388.137 46.0391C393.989 50.0877 398.83 55.4298 402.284 61.6511C407.815 72.3004 410.293 84.2786 409.467 96.2927C408.814 106.192 406.883 115.964 403.721 125.367C399.026 123.585 394.228 122.086 389.354 120.878L359.184 113.694C343.578 109.744 328.511 105.254 313.246 101.483L303.19 99.3277C306.47 87.8822 310.601 76.7541 315.581 65.9431ZM413.041 166.653C410.51 180.55 406.723 194.189 401.727 207.401C399.69 216.665 396.681 225.689 392.748 234.32C390.683 238.657 387.376 242.282 383.248 244.736C379.92 246.125 376.448 246.843 372.832 246.891C366.163 247.063 359.492 246.581 352.916 245.455C339.05 243.267 325.325 240.269 311.81 236.475C298.201 232.817 284.833 228.319 271.781 223.007C265.39 220.434 259.355 217.054 253.822 212.95C250.548 210.564 247.899 207.422 246.1 203.791C244.215 198.452 244.215 192.627 246.1 187.288C249.153 177.159 252.745 167.222 256.875 157.477C260.251 147.731 264.202 138.225 268.728 128.959C272.044 121.416 275.995 114.233 280.58 107.409C290.816 109.384 300.873 111.899 310.391 114.592C325.638 118.902 340.525 123.931 356.149 128.42L385.062 137.04C390.377 138.537 395.579 140.392 400.668 142.607C403.565 143.996 406.259 145.732 408.749 147.815C410.919 150.383 412.442 153.434 413.189 156.712C413.936 159.99 413.885 163.399 413.041 166.653Z" fill="white"/>
<path d="M336.217 161.266C318.259 155.699 293.135 170.604 309.118 188.562C330.309 212.788 374.971 174.016 336.217 161.266ZM208.785 99.6867C192.142 95.9805 174.775 97.2929 158.878 103.458C152.152 106.068 145.663 109.252 139.483 112.976C133.466 116.869 127.874 121.383 122.8 126.445C110.667 138.288 102.19 153.366 98.3767 169.886C98.3481 171.011 98.685 172.115 99.3368 173.033C99.9887 173.951 100.92 174.633 101.992 174.977C103.064 175.321 104.219 175.308 105.283 174.94C106.347 174.573 107.263 173.871 107.895 172.939C113.95 159.932 123.221 148.683 134.832 140.255C139.573 136.364 144.542 132.772 149.738 129.48C154.85 126.079 160.171 123.027 165.702 120.321C178.202 113.613 192.277 110.393 206.45 111C207.923 111.2 209.415 110.821 210.614 109.943C211.814 109.066 212.626 107.758 212.882 106.294C213.138 104.83 212.816 103.324 211.985 102.092C211.154 100.86 209.878 99.9981 208.425 99.6867H208.785ZM328.154 268.962C326.797 268.755 325.414 269.091 324.304 269.898C323.194 270.705 322.448 271.918 322.227 273.272C317.579 288.002 309.867 301.582 299.6 313.121C295.566 318.263 291.186 323.123 286.49 327.668C282.003 332.295 277.209 336.614 272.142 340.598C260.595 350.157 246.347 355.865 231.394 356.922C230.441 356.893 229.495 357.095 228.636 357.511C227.778 357.926 227.032 358.542 226.463 359.307C225.893 360.072 225.517 360.963 225.366 361.905C225.214 362.847 225.293 363.811 225.594 364.716C225.964 365.79 226.645 366.729 227.549 367.417C228.454 368.104 229.542 368.508 230.676 368.577C248.865 370.097 267.045 365.55 282.378 355.647C288.915 351.696 294.901 347.033 300.336 341.657C305.736 336.162 310.518 330.176 314.685 323.699C324.557 309.001 330.719 292.129 332.643 274.529C332.705 273.213 332.283 271.919 331.455 270.893C330.628 269.867 329.453 269.18 328.154 268.962Z" fill="white"/>
</g>
<defs>
<clipPath id="clip0_328_70">
<rect width="431" height="431" fill="white"/>
</clipPath>
</defs>
</svg>
