<svg width="313" height="313" viewBox="0 0 313 313" fill="none" xmlns="http://www.w3.org/2000/svg">
<g clip-path="url(#clip0_296_183)">
<path fill-rule="evenodd" clip-rule="evenodd" d="M268.007 230.785C232.925 242.392 198.625 256.869 163.673 268.997C148.806 274.344 134.069 279.431 118.941 283.995C116.984 283.995 114.246 285.56 111.898 286.343C106.551 267.693 101.608 248.913 96.1307 230.264C91.9573 215.918 87.6536 201.572 83.089 187.487C74.6119 164.012 65.2219 141.45 54.3974 119.018C57.5274 117.584 60.5269 116.019 63.6569 114.714C70.8299 111.845 78.2636 109.237 85.6974 106.629C96.6524 102.716 107.868 98.9341 119.084 95.152C148.558 85.2403 177.902 75.8503 203.855 65.5474C205.075 65.1047 206.073 64.2009 206.634 63.0303C207.195 61.8597 207.274 60.5158 206.854 59.2874C206.412 58.0672 205.508 57.0695 204.337 56.5086C203.167 55.9477 201.823 55.8684 200.594 56.2878C177.772 63.3303 152.21 69.3295 126.648 75.9807C109.974 80.4631 93.5603 85.8619 77.4811 92.1524C50.6153 102.977 -4.94223 134.929 3.14361 144.319C3.87939 145.149 4.90725 145.663 6.01277 145.754L25.3144 215.005C29.2269 228.829 32.8786 242.523 36.9215 256.347C39.6603 265.476 42.399 274.736 45.529 283.865C47.2713 289.902 49.4955 295.79 52.1803 301.471C54.1104 305.397 57.2665 308.605 61.179 310.6C68.238 313.158 75.8698 313.7 83.2194 312.165C97.146 308.891 110.795 304.53 124.04 299.124C139.168 294.037 154.166 288.429 169.034 282.43C203.203 268.476 236.85 252.956 271.398 239.784C272.071 239.613 272.701 239.303 273.247 238.873C273.792 238.442 274.241 237.902 274.565 237.288C274.888 236.673 275.079 235.997 275.124 235.303C275.169 234.61 275.068 233.915 274.828 233.263C274.588 232.614 274.215 232.021 273.732 231.525C273.249 231.028 272.668 230.638 272.025 230.38C271.382 230.122 270.693 230.002 270.001 230.027C269.309 230.051 268.629 230.221 268.007 230.524V230.785ZM61.8181 174.054C57.1231 174.706 52.5585 174.967 47.8635 175.749C45.5689 175.983 43.2995 176.42 41.0818 177.054C38.8995 177.575 36.7694 178.271 34.6914 179.14C32.2135 180.184 29.9964 181.488 27.6489 182.662C25.8231 177.184 23.8668 171.707 21.9106 166.099C19.1718 158.013 16.5635 149.666 14.0856 141.45C24.2288 134.151 35.0615 127.861 46.4289 122.67C52.1672 139.624 56.8622 156.448 61.8181 174.054ZM31.8222 194.66C34.0828 194.79 36.3433 194.79 38.6039 194.66C40.9514 194.373 43.2554 193.895 45.516 193.225C47.7418 192.573 49.9154 191.791 52.0368 190.878C56.471 188.922 60.6443 186.704 65.0785 184.487C65.1487 184.832 65.1487 185.187 65.0785 185.531C69.3822 199.746 73.9468 213.962 78.1201 228.047C78.1201 229.09 78.9026 230.003 79.1635 231.046C76.6856 231.046 74.0772 231.046 71.5993 231.829C66.6642 232.624 61.8166 233.891 57.1231 235.611C53.6018 237.045 50.3414 238.741 47.081 240.436L36.9085 211.223C35.7347 205.615 33.7785 200.137 31.8222 194.66ZM68.0781 295.472C68.991 294.037 65.7306 292.081 64.8176 289.864C62.9918 285.43 61.6876 280.604 60.7747 278.257L52.1672 251.261C55.6015 251.522 59.0358 251.522 62.4701 251.261C64.9915 250.922 67.4695 250.4 69.9039 249.696C72.2514 249.044 74.7293 248.131 77.0768 247.218L85.0322 243.436C90.6401 259.086 96.5089 274.736 102.638 290.255C97.4218 291.951 91.9443 293.777 86.4668 295.081C80.5055 296.996 74.1154 297.131 68.0781 295.472Z" fill="white"/>
<path fill-rule="evenodd" clip-rule="evenodd" d="M203.842 134.538V158.534C203.842 159.838 203.842 162.968 204.494 164.925C204.82 166.62 205.537 168.237 206.58 169.62C208 171.189 209.921 172.216 212.015 172.525C214.108 172.834 216.244 172.406 218.057 171.315L223.143 167.533L239.445 150.188V149.405C240.423 148.951 241.208 148.166 241.662 147.188C252.487 122.148 267.746 98.021 279.483 72.8506C284.7 61.7391 289.069 50.2233 292.525 38.4336C294.241 30.6586 294.241 22.6031 292.525 14.8282C291.928 10.4258 289.967 6.32106 286.917 3.09068C283.766 0.798902 279.894 -0.278304 276.012 0.0571493C272.131 0.392603 268.5 2.11816 265.79 4.91651C260.762 8.98217 256.366 13.7731 252.748 19.1319C248.056 26.6253 243.957 34.4743 240.489 42.6069L225.752 76.2544L206.58 130.377C205.735 130.685 205.012 131.257 204.518 132.009C204.025 132.761 203.787 133.653 203.842 134.551M237.88 80.9494L253.53 49.3886C257.008 42.1461 261.008 35.1949 265.529 28.535C268.228 24.6225 271.528 21.1403 275.31 18.2321C276.092 19.4493 276.701 20.7534 277.136 22.1446C277.918 26.4483 277.918 30.8825 277.136 35.1862C274.397 46.4021 270.771 57.3962 266.311 68.0512C256.008 93.3521 242.575 118.131 233.185 143.302L218.187 152.431L213.492 137.955L237.88 80.9494ZM203.855 186.183C197.2 195.084 188.155 201.913 177.771 205.876C175.873 206.898 173.791 207.534 171.645 207.747C169.499 207.959 167.332 207.744 165.27 207.113C163.208 206.483 161.292 205.449 159.632 204.072C157.972 202.696 156.602 201.004 155.601 199.094C152.868 193.508 151.272 187.435 150.906 181.227C150.424 173.56 149.422 165.935 147.906 158.404C146.916 154.203 145.335 150.163 143.211 146.406C141.257 142.393 138.188 139.029 134.372 136.716C130.555 134.403 126.153 133.239 121.692 133.364C115.876 134.045 110.339 136.232 105.627 139.708C100.915 143.185 97.1924 147.831 94.8263 153.187C94.5551 153.691 94.3872 154.244 94.3323 154.814C94.2775 155.384 94.3368 155.959 94.5068 156.505C94.6768 157.052 94.9541 157.559 95.3225 157.997C95.6909 158.435 96.1429 158.795 96.6522 159.056C97.2141 159.307 97.8221 159.437 98.4373 159.44C99.0526 159.443 99.6618 159.318 100.226 159.073C100.79 158.827 101.297 158.467 101.715 158.015C102.132 157.563 102.451 157.03 102.651 156.448C104.327 153.532 106.578 150.987 109.269 148.969C111.96 146.951 115.033 145.502 118.301 144.71C120.903 144.222 123.593 144.728 125.839 146.129C128.085 147.53 129.724 149.723 130.43 152.274C132.725 158.313 133.873 164.729 133.821 171.185C133.934 179.418 134.847 187.548 136.56 195.573C137.616 199.902 139.338 204.037 141.646 207.832C144.863 213.48 149.919 217.855 155.97 220.228C162.021 222.601 168.703 222.829 174.902 220.873C190.518 215.935 203.786 205.451 212.201 191.399C212.64 190.853 212.957 190.221 213.133 189.543C213.31 188.866 213.34 188.159 213.223 187.469C213.106 186.778 212.845 186.121 212.455 185.539C212.066 184.957 211.557 184.465 210.964 184.094C210.37 183.723 209.705 183.482 209.011 183.387C208.318 183.291 207.612 183.344 206.94 183.542C206.268 183.739 205.646 184.076 205.114 184.532C204.583 184.987 204.153 185.549 203.855 186.183ZM309.088 189.587C307.653 182.935 305.175 175.632 302.828 167.807C300.48 159.982 297.22 151.114 293.96 142.897C289.134 129.856 283.787 118.249 277.918 106.12C277.416 105.135 276.544 104.389 275.492 104.047C274.441 103.704 273.296 103.793 272.31 104.294C271.255 104.73 270.408 105.556 269.946 106.601C269.484 107.645 269.444 108.828 269.832 109.902L286.917 172.763C289.265 180.197 291.742 187.109 293.568 193.499C295.864 199.198 296.581 205.419 295.655 211.496C294.302 215.423 292.124 219.015 289.267 222.029C286.41 225.043 282.941 227.411 279.092 228.972C278.409 229.177 277.778 229.526 277.242 229.996C276.706 230.467 276.278 231.048 275.987 231.699C275.696 232.35 275.549 233.056 275.556 233.769C275.563 234.482 275.723 235.186 276.027 235.831C276.331 236.476 276.77 237.048 277.315 237.508C277.86 237.968 278.498 238.305 279.185 238.496C279.872 238.687 280.593 238.727 281.297 238.614C282.001 238.501 282.672 238.237 283.265 237.841C288.831 236.211 293.965 233.365 298.296 229.508C302.626 225.652 306.045 220.88 308.305 215.539C311.15 207.16 311.422 198.122 309.088 189.587Z" fill="white"/>
</g>
<defs>
<clipPath id="clip0_296_183">
<rect width="313" height="313" fill="white"/>
</clipPath>
</defs>
</svg>
