<svg width="800" height="800" viewBox="0 0 800 800" fill="none" xmlns="http://www.w3.org/2000/svg">
<path d="M420.466 249.79C413.4 256.86 413.4 268.319 420.47 275.388C427.539 282.458 439 282.456 446.066 275.385L461.011 260.434C466.386 255.057 467.829 246.894 464.62 240C454.647 218.57 449.59 196.4 449.59 174.103C449.59 128.711 469.349 85.9584 502.678 56.42L502.736 174.901C502.737 180.836 505.652 186.395 510.531 189.774L596.406 249.238C602.602 253.528 610.81 253.531 617.007 249.242L702.913 189.808C707.8 186.427 710.716 180.865 710.716 174.921L710.703 56.4471C744.028 85.9584 763.789 128.677 763.8 174.031C763.8 216.004 747.458 255.466 717.782 285.148C688.129 314.807 648.716 331.135 606.786 331.135C606.747 331.135 606.705 331.135 606.663 331.135C592.236 331.124 563.916 324.139 554.22 321.448C547.934 319.7 541.19 321.475 536.576 326.087L481.55 381.115C474.482 388.183 474.482 399.644 481.55 406.713C485.085 410.246 489.717 412.015 494.348 412.015C498.98 412.015 503.614 410.246 507.147 406.713L554.844 359.014C568.142 362.302 591 367.323 606.634 367.334C606.689 367.334 606.734 367.334 606.786 367.334C658.379 367.332 706.89 347.236 743.378 310.74C779.889 274.223 799.995 225.672 799.995 174.027C799.979 104.463 762.234 39.9566 701.492 5.6779C695.889 2.51591 689.027 2.56478 683.469 5.81003C677.912 9.05528 674.495 15.0064 674.497 21.4426L674.511 165.437L606.71 212.344L538.933 165.406L538.862 21.401C538.859 14.9666 535.44 9.01727 529.883 5.77564C524.327 2.5322 517.465 2.48695 511.862 5.65075C451.125 39.9603 413.395 104.507 413.395 174.101C413.395 197.609 417.883 220.896 426.757 243.501L420.466 249.79Z" fill="white"/>
<path d="M372.539 490.13L121.459 741.22C112.024 750.661 99.4806 755.862 86.1412 755.871C86.1322 755.871 86.125 755.871 86.1141 755.871C72.7783 755.87 60.2335 750.671 50.8001 741.238C41.3684 731.795 36.1811 719.236 36.1974 705.87C36.2118 692.543 41.4082 680.033 50.8526 670.619L266.815 454.637C273.882 447.569 273.882 436.11 266.815 429.041C259.747 421.975 248.286 421.973 241.218 429.043L25.2797 645.003C9.00459 661.222 0.0272109 682.824 6.16091e-05 705.828C-0.0270877 728.871 8.91952 750.532 25.1983 766.829C41.477 783.108 63.1096 792.071 86.1141 792.071C86.1304 792.071 86.1467 792.071 86.1612 792.071C109.167 792.058 130.796 783.086 147.061 766.813L398.136 515.729C405.204 508.661 405.204 497.2 398.136 490.13C391.066 483.064 379.607 483.064 372.539 490.13Z" fill="white"/>
<path d="M85.8573 683.894C79.8953 683.897 74.2953 686.227 70.1614 690.382C61.4609 699.028 61.4175 713.157 70.0636 721.872C70.0854 721.895 70.1071 721.915 70.1288 721.939C74.4636 726.263 80.1541 728.427 85.8537 728.427C91.5659 728.427 97.2872 726.252 101.655 721.894C110.317 713.189 110.292 699.061 101.635 690.431C97.4265 686.214 91.8302 683.894 85.8718 683.894C85.8682 683.894 85.8627 683.894 85.8573 683.894Z" fill="white"/>
<path d="M677.613 592.14C675.738 590.266 673.475 588.827 670.985 587.922L619.081 569.102L431.591 381.609L461.895 351.307C468.963 344.239 468.965 332.778 461.895 325.709C456.53 320.348 448.637 319.052 442.052 321.828L158.465 38.2735C141.314 21.0663 118.472 11.5749 94.1484 11.5459C94.1122 11.5459 94.0797 11.5459 94.0435 11.5459C69.7195 11.5459 46.8561 21.0047 29.6525 38.1884C12.4272 55.4138 2.94843 78.3061 2.96291 102.65C2.97558 126.974 12.4616 149.845 29.6688 167.043L313.26 450.621C310.483 457.204 311.776 465.097 317.14 470.462C324.21 477.528 335.671 477.531 342.737 470.462L373.033 440.165L560.525 627.654L579.347 679.56C580.25 682.051 581.689 684.315 583.564 686.188L688.766 791.388C692.3 794.921 696.932 796.69 701.564 796.69C706.196 796.69 710.829 794.921 714.362 791.388L782.813 722.938C786.206 719.542 788.114 714.94 788.114 710.14C788.114 705.34 786.206 700.737 782.813 697.341L677.613 592.14ZM393.193 368.811C393.155 368.849 393.115 368.891 393.077 368.929L337.919 424.087L55.2615 141.443C44.8869 131.074 39.1692 117.291 39.162 102.632C39.1548 87.964 44.867 74.1685 55.2416 63.7939C65.6036 53.4427 79.381 47.7468 94.0435 47.7468C94.0652 47.7468 94.0869 47.7468 94.1068 47.7468C108.755 47.7631 122.503 53.4753 132.845 63.85L415.515 346.491L393.31 368.695C393.272 368.733 393.233 368.771 393.193 368.811ZM701.564 752.994L612.007 663.437L593.186 611.531C592.282 609.041 590.843 606.777 588.968 604.903L398.632 414.569L405.995 407.207L596.329 597.544C598.205 599.417 600.467 600.856 602.957 601.761L654.862 620.581L744.418 710.138L701.564 752.994Z" fill="white"/>
<path d="M106.753 89.7248C99.6849 82.6588 88.2242 82.6588 81.1564 89.7248C74.0885 96.7927 74.0885 108.253 81.1564 115.323L330.841 365.006C334.374 368.539 339.008 370.308 343.64 370.308C348.271 370.308 352.905 368.539 356.438 365.006C363.506 357.938 363.506 346.478 356.438 339.408L106.753 89.7248Z" fill="white"/>
</svg>
