<svg width="220" height="220" viewBox="0 0 220 220" fill="none" xmlns="http://www.w3.org/2000/svg">
<g clip-path="url(#clip0_296_175)">
<path fill-rule="evenodd" clip-rule="evenodd" d="M165.982 125.574C167.333 124.845 168.846 124.467 170.382 124.474C171.39 124.474 172.582 124.474 173.04 125.299C173.162 125.634 173.35 125.94 173.592 126.2C173.835 126.461 174.127 126.67 174.452 126.815C174.777 126.961 175.127 127.039 175.483 127.047C175.839 127.054 176.193 126.99 176.523 126.858C176.854 126.746 177.159 126.567 177.419 126.333C177.678 126.1 177.888 125.815 178.034 125.498C178.179 125.18 178.259 124.836 178.267 124.487C178.275 124.137 178.212 123.79 178.082 123.466C177.678 122.232 176.957 121.126 175.992 120.257C175.027 119.388 173.851 118.788 172.582 118.516C169.587 117.65 166.409 117.65 163.415 118.516C160.489 119.27 157.794 120.736 155.571 122.783C153.348 124.83 151.666 127.395 150.673 130.249C150.062 132.392 149.926 134.642 150.274 136.843C150.622 139.044 151.447 141.142 152.69 142.991C154.936 146.474 158.117 149.279 161.857 151.058C165.788 153.094 170.357 153.521 174.598 152.249C176.996 151.446 179.177 150.103 180.973 148.322C182.769 146.542 184.132 144.373 184.957 141.983C185.729 139.58 185.776 137.002 185.091 134.573C184.406 132.143 183.02 129.97 181.107 128.324C180.535 127.753 179.76 127.432 178.952 127.432C178.144 127.432 177.37 127.753 176.798 128.324C176.227 128.896 175.906 129.67 175.906 130.478C175.906 131.286 176.227 132.061 176.798 132.633C177.563 133.574 178.032 134.72 178.146 135.927C178.26 137.134 178.014 138.348 177.44 139.416C176.885 140.494 176.094 141.433 175.126 142.163C174.157 142.893 173.037 143.395 171.848 143.633C169.85 143.867 167.835 143.379 166.165 142.258C164.157 141.121 162.481 139.477 161.307 137.491C160.631 136.655 160.183 135.659 160.007 134.598C159.83 133.538 159.931 132.451 160.298 131.441C161.429 128.868 163.446 126.786 165.982 125.574ZM194.032 48.125C175.814 44.8842 157.144 45.1642 139.032 48.95C138.327 48.95 137.65 49.2301 137.152 49.7287C136.653 50.2272 136.373 50.9033 136.373 51.6084C136.373 52.3134 136.653 52.9896 137.152 53.4881C137.65 53.9866 138.327 54.2667 139.032 54.2667C157.273 56.8975 175.79 56.8975 194.032 54.2667C194.755 54.1413 195.411 53.7644 195.884 53.2026C196.356 52.6408 196.616 51.9301 196.616 51.1959C196.616 50.4616 196.356 49.751 195.884 49.1892C195.411 48.6274 194.755 48.2505 194.032 48.125ZM194.582 82.5C182.663 79.423 170.121 79.7406 158.373 83.4167C157.741 83.5336 157.17 83.868 156.759 84.362C156.348 84.8559 156.123 85.4783 156.123 86.1209C156.123 86.7635 156.348 87.3858 156.759 87.8798C157.17 88.3738 157.741 88.7082 158.373 88.825C170.177 91.712 182.503 91.712 194.307 88.825C195.145 88.8615 195.964 88.5633 196.583 87.996C197.202 87.4287 197.57 86.6388 197.607 85.8C197.643 84.9613 197.345 84.1424 196.778 83.5236C196.21 82.9047 195.42 82.5365 194.582 82.5ZM89.0916 172.682C104.675 172.682 118.691 171.857 126.849 171.307C136.841 170.482 141.241 172.682 143.991 143.807C146.191 120.56 146.447 97.1759 144.724 73.8834C144.277 70.4353 142.735 67.2219 140.324 64.7167C125.841 53.5334 27.5007 60.225 14.2091 63.0667C13.7617 63.088 13.3243 63.2055 12.9264 63.4111C12.5286 63.6168 12.1797 63.9057 11.9036 64.2583C11.6275 64.6109 11.4306 65.0188 11.3264 65.4544C11.2221 65.8899 11.213 66.3428 11.2995 66.7822C11.3861 67.2216 11.5663 67.6371 11.8279 68.0006C12.0895 68.3641 12.4264 68.6669 12.8156 68.8884C13.2048 69.11 13.6372 69.245 14.0833 69.2844C14.5294 69.3238 14.9787 69.2666 15.4007 69.1167C28.8757 66.55 123.824 62.975 134.549 71.8667C134.549 71.8667 134.549 72.9667 135.099 73.8834C137.757 84.7001 135.099 128.874 133.816 140.424C133.289 139.774 132.536 139.348 131.707 139.233C93.3355 135.754 54.6959 136.554 16.5007 141.616C15.8688 141.733 15.2978 142.067 14.8868 142.561C14.4757 143.055 14.2507 143.677 14.2507 144.32C14.2507 144.963 14.4757 145.585 14.8868 146.079C15.2978 146.573 15.8688 146.907 16.5007 147.024C27.8674 147.024 44.7341 147.666 62.3341 147.574C87.5332 147.574 122.449 144.733 130.699 145.283C131.111 145.335 131.53 145.297 131.926 145.17C132.322 145.044 132.686 144.832 132.991 144.549C132.603 150.085 131.588 155.559 129.966 160.866C125.749 160.866 47.4749 165.083 16.2257 162.241C12.8341 162.241 9.71739 160.041 8.80072 160.774C5.59239 152.616 7.97572 80.1076 8.52572 72.2242C8.80049 71.5552 8.80063 70.8048 8.52611 70.1357C8.25159 69.4666 7.72452 68.9325 7.05905 68.6492C6.60622 68.5713 6.14228 68.5863 5.6954 68.6932C5.24852 68.8 4.82802 68.9966 4.45941 69.2709C4.0908 69.5452 3.78177 69.8916 3.55107 70.289C3.32038 70.6863 3.17283 71.1264 3.11739 71.5825C2.20072 77.9992 -0.0909482 126.583 0.000718462 145.649C0.0923851 164.716 0.825719 167.915 10.5424 169.748C24.9729 171.713 39.5204 172.693 54.0841 172.682C51.59 179.821 49.9889 187.241 49.3174 194.773C49.8235 196.078 50.6837 197.215 51.8012 198.057C52.9186 198.899 54.2489 199.413 55.6424 199.54C108.332 206.323 94.1241 196.24 89.2749 173.048C89.1869 172.942 89.1242 172.816 89.0916 172.682ZM58.0166 190.373C57.8089 184.933 58.2397 179.488 59.2999 174.148C59.9416 172.04 54.5332 173.14 83.2249 172.865C82.6749 174.79 85.3332 186.432 85.6999 191.198C82.4916 191.473 67.9166 190.373 58.0166 190.373Z" fill="white"/>
<path fill-rule="evenodd" clip-rule="evenodd" d="M215.748 30.7085C210.248 14.5843 159.657 17.9668 144.083 20.6252C122.908 24.2918 116.033 25.0252 116.583 46.0168C116.583 46.9335 116.583 50.9668 117.775 51.8835C118.142 52.3026 118.625 52.6043 119.163 52.751C119.701 52.8977 120.27 52.8829 120.8 52.7085C124.466 51.7918 121.35 49.8668 122.541 39.9668C123.733 30.0668 126.116 30.1585 145.458 27.5002C159.116 25.6668 191.282 25.4835 203.648 31.0752C205.298 31.8085 206.673 32.4502 207.04 33.5502C212.815 51.8835 208.323 114.675 208.415 146.098C208.415 152.515 208.415 162.873 207.773 171.948C206.031 187.348 203.556 186.798 198.606 187.99C183.848 191.473 137.3 192.848 128.316 184.415C127.711 183.984 126.972 183.783 126.232 183.848C125.492 183.914 124.8 184.242 124.28 184.772C123.76 185.303 123.447 186.002 123.398 186.744C123.348 187.485 123.564 188.219 124.008 188.815C134.733 199.448 183.215 199.54 200.44 196.057C209.606 194.223 213.64 191.198 216.298 177.723C217.876 167.289 218.582 156.742 218.406 146.19C217.948 114.299 223.723 54.2668 215.748 30.7177" fill="white"/>
</g>
<defs>
<clipPath id="clip0_296_175">
<rect width="220" height="220" fill="white"/>
</clipPath>
</defs>
</svg>
