<svg width="214" height="214" viewBox="0 0 214 214" fill="none" xmlns="http://www.w3.org/2000/svg">
<g clip-path="url(#clip0_296_179)">
<path fill-rule="evenodd" clip-rule="evenodd" d="M190.798 160.839C199.733 156.104 211.975 147.705 204.378 141.534C201.525 139.127 148.533 117.861 144.779 116.523C144.387 116.36 143.966 116.277 143.542 116.281C143.117 116.285 142.698 116.375 142.309 116.546C141.92 116.716 141.57 116.964 141.28 117.274C140.989 117.584 140.765 117.95 140.62 118.349C140.475 118.748 140.413 119.172 140.437 119.596C140.461 120.02 140.57 120.435 140.759 120.815C140.948 121.195 141.212 121.533 141.535 121.809C141.858 122.084 142.234 122.291 142.639 122.417C147.989 124.468 189.184 143.148 196.246 146.546C194.62 148.008 192.82 149.266 190.887 150.291C181.953 155.48 179.715 155.025 178.912 158.333C178.11 161.642 180.606 161.998 196.246 185.137C198.327 187.99 200.202 190.968 201.872 194.071C196.97 197.806 191.556 200.815 185.796 203.006C183.596 200.153 181.569 197.174 179.715 194.071C167.472 174.419 167.561 169.506 161.846 172.092C158.457 173.519 152.109 182.819 146.215 186.751C145.591 184.968 144.699 183.086 144.61 182.373C141.81 165.595 139.87 148.684 138.796 131.708C137.013 129.212 134.15 130.817 133.705 133.224C133.758 150.148 134.828 167.006 136.915 183.799C137.45 187.366 136.915 193.358 139.955 196.131C144.957 201.133 157.824 188.802 162.47 183.978C167.115 192.912 176.496 211.316 182.934 213.733C189.362 216.14 208.578 201.668 211.431 195.864C214.293 190.05 212.055 187.643 190.798 160.839ZM23.7175 140.197C9.95017 139.394 11.2074 139.662 11.2074 138.503C11.2074 132.6 12.2774 76.6746 12.1882 62.729C12.1882 43.0766 11.4749 26.2776 11.5641 21.9887C20.3683 19.9545 29.3402 18.7308 38.3676 18.3329C38.7629 18.397 39.1673 18.3745 39.553 18.2669C39.9387 18.1593 40.2965 17.9691 40.6014 17.7096C40.9064 17.4501 41.1514 17.1275 41.3194 16.764C41.4874 16.4005 41.5744 16.0048 41.5744 15.6044C41.5744 15.2039 41.4874 14.8083 41.3194 14.4448C41.1514 14.0813 40.9064 13.7586 40.6014 13.4991C40.2965 13.2397 39.9387 13.0495 39.553 12.9419C39.1673 12.8343 38.7629 12.8118 38.3676 12.8759C29.4331 12.8759 10.8507 12.8759 6.3835 16.4426C5.55617 16.9882 4.95436 17.8149 4.68933 18.7698C4.06517 19.6615 2.80792 35.7471 2.18375 56.4784C1.20291 84.3519 1.47042 113.483 2.45125 137.433C2.45125 140.286 2.45125 144.218 4.59125 145.645C8.5235 148.329 33.0978 148.142 42.389 147.607C45.064 147.607 47.5696 140.473 41.5865 139.484C35.6691 140.32 29.6827 140.559 23.7175 140.197ZM148.176 2.06889C132.991 -0.534781 67.7658 -1.42645 54.8991 3.85222C53.9588 4.19934 53.1047 4.74558 52.3952 5.45352C51.6858 6.16147 51.1377 7.01439 50.7885 7.95388C48.2027 15.8273 50.1643 161.909 50.3427 162.266C50.6512 162.963 51.1051 163.586 51.6741 164.094C52.2431 164.601 52.914 164.981 53.6418 165.208C62.5763 168.436 103.147 167.179 112.528 166.733C113.356 166.733 114.151 166.404 114.737 165.818C115.324 165.231 115.653 164.437 115.653 163.608C115.653 162.779 115.324 161.984 114.737 161.398C114.151 160.812 113.356 160.482 112.528 160.482C104.752 160.482 64.8144 160.482 58.2874 157.718C58.2874 157.718 59.8924 14.7484 59.8924 12.7867C62.0803 11.9572 64.3202 11.2721 66.5977 10.7359C93.2436 7.13927 120.169 6.06153 147.017 7.51697C147.375 7.59308 147.744 7.59799 148.104 7.53141C148.463 7.46483 148.806 7.32807 149.113 7.12894C149.42 6.92981 149.684 6.67221 149.892 6.37084C150.099 6.06947 150.245 5.73024 150.321 5.37251C150.397 5.01478 150.402 4.64557 150.335 4.28595C150.269 3.92632 150.132 3.58334 149.933 3.27657C149.734 2.9698 149.476 2.70525 149.175 2.49804C148.873 2.29082 148.534 2.145 148.176 2.06889ZM150.593 59.9648C151.039 69.4343 152.287 79.6171 153.089 90.5222C153.089 91.2565 153.381 91.9607 153.9 92.4799C154.42 92.9991 155.124 93.2908 155.858 93.2908C156.592 93.2908 157.297 92.9991 157.816 92.4799C158.335 91.9607 158.627 91.2565 158.627 90.5222C159.429 81.0527 160.499 72.1182 160.856 63.7187C161.454 46.6696 160.078 29.6085 156.754 12.8759C156.353 12.2309 155.73 11.7545 155.002 11.5361C154.274 11.3177 153.492 11.3722 152.801 11.6895C152.111 12.0068 151.56 12.565 151.252 13.2595C150.944 13.9539 150.9 14.737 151.128 15.4617C151.484 17.1648 149.79 41.5697 150.593 59.9648Z" fill="white"/>
<path fill-rule="evenodd" clip-rule="evenodd" d="M134.419 31.0124C115.391 27.7394 95.8919 28.4376 77.147 33.0633C76.7524 33.0407 76.3574 33.1029 75.9889 33.2459C75.6204 33.3889 75.2868 33.6093 75.0107 33.8922C74.7346 34.1751 74.5224 34.5139 74.3883 34.8858C74.2543 35.2577 74.2016 35.654 74.2338 36.048C74.266 36.442 74.3823 36.8245 74.5749 37.1697C74.7675 37.5149 75.0319 37.8148 75.3503 38.0491C75.6687 38.2834 76.0336 38.4467 76.4204 38.528C76.8073 38.6093 77.2071 38.6067 77.5928 38.5203C110.201 39.8578 90.6379 41.1061 134.419 37.2719C135.249 37.2719 136.045 36.9422 136.632 36.3553C137.219 35.7683 137.549 34.9723 137.549 34.1422C137.549 33.3121 137.219 32.5161 136.632 31.9291C136.045 31.3422 135.249 31.0124 134.419 31.0124ZM134.419 60.054C115.357 56.9777 95.8684 57.8273 77.147 62.5507C76.7828 62.58 76.428 62.6807 76.1028 62.8471C75.7775 63.0135 75.4882 63.2423 75.2514 63.5205C75.0146 63.7987 74.8349 64.1209 74.7226 64.4685C74.6103 64.8162 74.5676 65.1825 74.5968 65.5467C74.6261 65.9109 74.7268 66.2657 74.8932 66.5909C75.0596 66.9162 75.2885 67.2055 75.5667 67.4423C75.8449 67.6791 76.167 67.8588 76.5147 67.9711C76.8623 68.0834 77.2287 68.1261 77.5928 68.0969C110.112 69.3452 90.5488 70.5935 134.419 66.7594C135.308 66.7594 136.161 66.4061 136.789 65.7774C137.418 65.1486 137.771 64.2959 137.771 63.4067C137.771 62.5175 137.418 61.6648 136.789 61.036C136.161 60.4073 135.308 60.054 134.419 60.054ZM77.147 90.7006C76.646 90.6594 76.1431 90.7556 75.6927 90.9789C75.2423 91.2022 74.8613 91.5441 74.5907 91.9679C74.3201 92.3916 74.1702 92.8811 74.1572 93.3837C74.1441 93.8863 74.2684 94.3829 74.5166 94.8201C74.8131 95.3479 75.2747 95.7637 75.8304 96.0037C76.3862 96.2437 77.0053 96.2946 77.5928 96.1487C109.844 97.4862 90.8163 98.7345 134.419 94.9004C135.249 94.9004 136.045 94.5706 136.632 93.9837C137.219 93.3967 137.549 92.6007 137.549 91.7706C137.549 90.9405 137.219 90.1445 136.632 89.5575C136.045 88.9706 135.249 88.6409 134.419 88.6409C115.391 85.3678 95.8919 86.066 77.147 90.6917M168.463 18.7699C176.612 18.859 184.753 19.6615 192.761 21.1774C191.869 91.9489 192.761 63.8882 194.901 123.755C194.901 124.585 195.23 125.381 195.817 125.968C196.404 126.555 197.2 126.884 198.03 126.884C198.86 126.884 199.656 126.555 200.243 125.968C200.83 125.381 201.16 124.585 201.16 123.755C201.16 99.5459 203.746 70.861 202.408 39.8578C201.873 26.8127 200.893 18.5024 200.714 17.8782C200.536 17.254 197.772 13.5982 191.78 13.2415C185.788 12.8849 179.715 13.2415 168.284 13.2415C167.551 13.2652 166.857 13.5791 166.356 14.1142C165.854 14.6493 165.586 15.3618 165.609 16.0949C165.633 16.828 165.947 17.5216 166.482 18.0233C167.017 18.525 167.729 18.7935 168.463 18.7699Z" fill="white"/>
</g>
<defs>
<clipPath id="clip0_296_179">
<rect width="214" height="214" fill="white"/>
</clipPath>
</defs>
</svg>
