<svg width="269" height="269" viewBox="0 0 269 269" fill="none" xmlns="http://www.w3.org/2000/svg">
<g clip-path="url(#clip0_296_212)">
<path d="M267.443 202.68C267.443 187.493 266.546 172.653 264.865 157.701C264.995 149.839 263.054 142.081 259.238 135.206C251.706 125.197 230.904 127.786 221.231 127.226C140.497 122.059 157.018 130.14 131.273 130.488C130.259 130.488 129.287 130.89 128.57 131.607C127.853 132.324 127.451 133.296 127.451 134.31C127.451 135.323 127.853 136.295 128.57 137.012C129.287 137.729 130.259 138.132 131.273 138.132C158.711 138.132 140.946 129.815 220.211 137.123C226.286 137.123 246.64 137.123 250.126 141.617C253.612 146.112 254.733 194.801 254.733 202.568C254.733 214.595 259.35 242.705 251.594 251.482C243.827 260.246 216.848 254.172 205.147 254.732C185.813 255.64 163.766 258.117 144.88 257.669C125.982 257.22 127.339 258.565 127.563 233.38C128.347 132.169 127.563 145.776 127.563 143.422C127.82 143.023 127.99 142.574 128.062 142.105C128.133 141.636 128.104 141.156 127.977 140.699C127.85 140.242 127.628 139.816 127.324 139.451C127.021 139.086 126.644 138.789 126.218 138.58C125.614 138.406 124.978 138.372 124.358 138.48C123.739 138.588 123.152 138.836 122.643 139.204C122.133 139.572 121.714 140.051 121.417 140.605C121.12 141.159 120.952 141.774 120.928 142.402C120.143 146.684 117.105 250.013 117.105 250.809C119.235 274.638 141.73 268.91 205.595 266.994C228.763 266.209 263.733 278.807 268.227 241.024C268.879 228.241 268.616 215.427 267.443 202.68Z" fill="white"/>
<path d="M181.53 227.193C185.24 226.409 187.044 225.736 219.873 207.735C224.603 205.158 234.489 201.436 233.817 194.129C233.144 186.821 224.827 184.119 218.753 180.746L179.736 159.159C179.607 158.696 179.38 158.267 179.07 157.899C178.761 157.532 178.377 157.235 177.943 157.029C169.839 153.095 170.064 171.42 169.391 180.41C168.719 189.41 158.709 231.8 181.53 227.193ZM178.055 180.185C178.055 179.401 179.736 172.99 180.073 168.047L213.473 190.082C216.388 191.33 219.234 192.716 222.014 194.241C219.885 195.474 181.754 214.931 179.96 215.615C177.165 204.025 176.52 192.009 178.055 180.185ZM44.7992 226.409C44.7992 227.422 45.2019 228.394 45.9186 229.111C46.6354 229.828 47.6076 230.231 48.6212 230.231C49.6349 230.231 50.607 229.828 51.3238 229.111C52.0406 228.394 52.4433 227.422 52.4433 226.409C54.2366 204.519 53.2951 182.494 49.6412 160.84C48.7445 154.899 42.3221 154.899 41.2013 160.167C41.0647 182.3 42.2662 204.421 44.7992 226.409ZM99.451 147.02C71.7926 143.44 43.8657 142.386 16.0162 143.87C11.5104 145.215 10.8379 149.262 16.6887 152.075C21.9678 152.635 77.4042 155.449 99.1148 154.664C100.09 154.646 101.021 154.257 101.719 153.576C102.417 152.895 102.83 151.974 102.873 151C102.916 150.026 102.586 149.072 101.95 148.332C101.314 147.593 100.421 147.124 99.451 147.02ZM20.5107 189.869C22.588 189.802 24.6503 189.574 26.6977 189.186C29.7987 188.207 32.7951 186.97 35.6868 185.476C36.5831 185.232 37.3603 184.671 37.874 183.897C38.3877 183.123 38.6029 182.189 38.4796 181.268C38.3563 180.347 37.9029 179.503 37.2037 178.891C36.5044 178.28 35.607 177.943 34.6781 177.944C28.4137 176.44 21.8319 176.99 15.9041 179.513C13.5391 181.418 13.8866 183.111 14.6712 187.493C15.4558 187.381 16.2404 188.614 20.5107 189.858" fill="white"/>
<path d="M178.493 49.5297C178.704 42.7694 178.404 36.0027 177.596 29.2875C173.438 0.952806 147.457 0.840725 120.154 0.280308C99.5453 -0.471152 78.9096 0.315614 58.4182 2.63406C43.013 4.47977 27.9013 8.25677 13.4392 13.876C10.1591 16.3265 7.50995 19.5231 5.71093 23.201C3.91191 26.879 3.01482 30.9325 3.09392 35.0261C1.30058 50.2022 -0.952291 175.467 1.52475 198.746C4.00179 222.026 12.7667 236.182 35.9343 240.464C51.4915 242.123 67.2056 241.887 82.7067 239.791C87.0892 239.791 103.621 241.921 107.219 237.987C107.766 237.321 108.039 236.472 107.982 235.613C107.925 234.754 107.542 233.948 106.912 233.361C106.282 232.774 105.452 232.449 104.591 232.453C103.729 232.456 102.902 232.788 102.276 233.38L82.3705 232.483C67.4319 234.291 52.3299 234.291 37.3914 232.483C15.3334 227.305 11.063 212.454 11.063 188.95C13.1926 107.533 7.58846 48.6218 18.3709 26.1267C19.828 23.2126 32.314 20.5001 40.866 18.5947C40.866 18.5947 132.729 11.9594 132.729 11.399C174.447 11.399 169.269 28.3796 169.381 76.0486C170.095 89.3097 170.095 102.6 169.381 115.861C169.344 116.812 169.663 117.742 170.275 118.47C170.888 119.198 171.75 119.672 172.693 119.798C173.636 119.924 174.593 119.694 175.375 119.152C176.158 118.611 176.71 117.797 176.924 116.869C179.726 103.935 178.045 101.469 178.493 49.5073" fill="white"/>
<path d="M166.467 96.7501C122.356 91.6668 77.8887 90.3918 33.5587 92.9393C28.2683 92.9393 22.3167 93.9481 17.6989 94.6206C13.0922 95.2931 13.7647 99.003 16.578 101.592C19.9106 101.869 23.247 101.869 26.5871 101.592C74.9398 100.808 166.131 104.058 166.467 103.946C170.401 103.946 170.177 97.0864 166.467 96.7501ZM139.814 63.0243C143.215 64.0434 146.785 64.3789 150.317 64.0114C153.849 63.644 157.273 62.5809 160.392 60.8835C161.406 60.8835 162.378 60.4808 163.095 59.764C163.812 59.0473 164.214 58.0751 164.214 57.0614C164.214 56.0478 163.812 55.0756 163.095 54.3589C162.378 53.6421 161.406 53.2394 160.392 53.2394C153.781 50.6294 146.425 50.6294 139.814 53.2394C138.693 40.6188 136.709 28.1402 133.862 15.8036C133.836 15.2696 133.695 14.7475 133.447 14.2735C133.2 13.7994 132.853 13.3845 132.43 13.0575C132.007 12.7304 131.519 12.4989 130.998 12.379C130.477 12.259 129.936 12.2534 129.412 12.3626C128.89 12.4664 128.396 12.6819 127.964 12.9944C127.532 13.3068 127.173 13.7089 126.912 14.1729C126.65 14.637 126.491 15.1521 126.447 15.6831C126.403 16.2141 126.474 16.7484 126.655 17.2494V31.3159C126.577 50.1683 128.235 68.9759 131.609 87.5369C131.862 88.4008 132.367 89.169 133.061 89.742C133.755 90.3151 134.605 90.6667 135.501 90.7512C136.397 90.8357 137.298 90.6493 138.087 90.2161C138.876 89.7829 139.516 89.1229 139.926 88.3215C139.477 78.9849 140.038 73.1454 139.814 63.0243ZM36.3719 61.1077C36.3719 69.8838 37.6049 78.4245 37.9411 87.2007C37.9411 88.2143 38.3438 89.1865 39.0606 89.9032C39.7773 90.62 40.7495 91.0227 41.7632 91.0227C42.7768 91.0227 43.749 90.62 44.4657 89.9032C45.1825 89.1865 45.5852 88.2143 45.5852 87.2007C47.8269 74.2326 48.9477 61.1077 48.9589 47.9491V21.6431C48.9589 18.4936 43.6798 17.8211 40.9786 20.4102C38.0113 31.1042 36.4625 42.1418 36.3719 53.2394C33.4466 53.2394 28.7167 51.6702 23.7738 51.4461C21.6699 51.4384 19.5793 51.7793 17.5868 52.4548C14.3364 55.5932 11.9714 58.0702 15.4572 62.0043C22.4288 62.6768 29.4676 62.3854 36.3719 61.1077Z" fill="white"/>
</g>
<defs>
<clipPath id="clip0_296_212">
<rect width="269" height="269" fill="white"/>
</clipPath>
</defs>
</svg>
