<svg width="275" height="275" viewBox="0 0 275 275" fill="none" xmlns="http://www.w3.org/2000/svg">
<g clip-path="url(#clip0_296_188)">
<path fill-rule="evenodd" clip-rule="evenodd" d="M270.681 65.3238C269.191 52.1467 269.879 25.2197 260.254 17.7717C238.368 0.801948 190.347 5.38528 159.272 4.01028C118.95 2.40611 77.5737 5.61445 37.6987 6.76028C36.6654 6.76028 35.6745 7.17073 34.9439 7.90134C34.2133 8.63195 33.8029 9.62287 33.8029 10.6561C33.8029 11.6894 34.2133 12.6803 34.9439 13.4109C35.6745 14.1415 36.6654 14.5519 37.6987 14.5519C77.3445 13.979 117.918 11.3436 158.607 13.6353C186.795 15.2394 235.046 12.0311 253.161 26.5832C257.745 30.2499 257.859 57.1769 258.776 66.5728C262.626 99.9509 262.935 133.638 259.692 167.085C259.142 178.314 257.424 189.452 254.536 200.314C227.953 215.21 29.7924 227.597 17.6466 206.273C14.1726 195.109 12.0567 183.568 11.3445 171.898C26.0112 168.919 47.8966 173.502 139.472 170.523C207.087 168.231 225.65 170.523 236.191 170.523C236.879 170.523 239.743 164.794 236.191 163.075H234.702C171.337 156.544 127.326 158.262 26.6987 164.106C21.5575 163.758 16.3929 164.105 11.3445 165.137C7.93078 129.822 8.31492 94.2432 12.4904 59.0103C12.4904 53.1665 13.5216 47.5519 14.3237 41.3644C14.2395 34.0746 15.0476 26.8018 16.7299 19.7082C20.7404 15.6978 11.1154 7.10403 8.59452 23.604C7.67785 29.4478 7.67785 37.2394 7.21952 40.3332C6.30285 46.4061 5.61535 52.3644 5.04244 58.3228C0.373384 90.4567 -1.04698 122.979 0.802855 155.398C1.08869 174.392 3.66636 193.282 8.47994 211.658C17.532 228.284 74.5945 229.545 94.4289 229.888C88.7508 238.771 86.2095 249.3 87.2101 259.795C78.3872 260.482 70.1372 261.284 62.5747 261.628C61.663 261.628 60.7887 261.99 60.144 262.635C59.4994 263.279 59.1372 264.154 59.1372 265.065C59.1372 265.977 59.4994 266.852 60.144 267.496C60.7887 268.141 61.663 268.503 62.5747 268.503C129.377 270.795 106.116 274.347 201.129 267.013C202.162 267.013 203.153 266.603 203.884 265.872C204.614 265.142 205.025 264.151 205.025 263.118C205.025 262.084 204.614 261.093 203.884 260.363C203.153 259.632 202.162 259.222 201.129 259.222H180.046C178.518 248.333 175.431 237.721 170.879 227.711C197.011 226.06 222.959 222.228 248.452 216.253C264.963 211.784 267.828 207.315 270.005 194.253C276.445 151.525 276.674 108.098 270.692 65.3124M170.867 258.889C139.586 258.202 122.972 257.858 95.9299 258.889C100.675 249.764 103.594 239.8 104.524 229.556C123.659 229.556 141.992 228.869 159.524 227.837C160.864 238.918 164.737 249.551 170.867 258.889Z" fill="white"/>
<path fill-rule="evenodd" clip-rule="evenodd" d="M136.585 182.222C126.845 177.065 114.928 187.034 123.637 195.857C124.695 196.879 125.955 197.668 127.336 198.174C128.717 198.68 130.189 198.891 131.657 198.794C133.125 198.697 134.556 198.294 135.858 197.61C137.161 196.927 138.306 195.978 139.22 194.826C140.297 192.742 140.623 190.351 140.143 188.055C139.663 185.759 138.407 183.699 136.585 182.222ZM29.8962 84.6998C33.4483 125.148 32.5316 126.408 37.2295 131.221C37.8431 132.155 38.6686 132.932 39.6388 133.487C40.6091 134.042 41.6967 134.361 42.8132 134.417C43.9298 134.473 45.0437 134.264 46.0645 133.808C47.0853 133.352 47.9841 132.662 48.6879 131.794C52.8785 123.284 55.4802 114.081 56.365 104.637C66.2191 118.502 71.1462 126.867 75.9587 129.158C77.1515 129.865 78.505 130.255 79.8908 130.291C81.2766 130.327 82.6488 130.009 83.877 129.366C85.1053 128.724 86.1489 127.778 86.9088 126.618C87.6687 125.459 88.1198 124.124 88.2191 122.741C88.5968 118.357 88.5968 113.949 88.2191 109.564C89.1358 66.8248 90.5223 51.4592 84.7816 53.5332C80.0837 51.6884 80.0837 63.2727 80.0837 74.5019C80.0837 73.5852 76.8754 106.471 77.6775 113.689C77.6775 113.689 64.8441 85.1582 63.4691 82.5228C62.8999 81.2514 61.975 80.1718 60.8059 79.4143C59.6368 78.6569 58.2736 78.2538 56.8806 78.2538C55.4876 78.2538 54.1243 78.6569 52.9553 79.4143C51.7862 80.1718 50.8613 81.2514 50.292 82.5228C46.7133 91.4402 44.0266 100.69 42.2712 110.137L37.8025 83.2103C35.167 71.5228 34.2504 62.929 34.2504 62.2415C31.8441 55.8248 26.4587 55.2519 27.3754 64.8769C27.8337 68.7728 29.667 82.5228 29.8962 84.6998ZM137.387 82.5228C136.818 81.2514 135.893 80.1718 134.724 79.4143C133.555 78.6569 132.191 78.2538 130.798 78.2538C129.405 78.2538 128.042 78.6569 126.873 79.4143C125.704 80.1718 124.779 81.2514 124.21 82.5228C120.793 91.4764 118.185 100.718 116.418 110.137L111.949 83.2103C109.314 71.7519 108.741 62.929 108.397 62.2415C106.106 55.8248 100.72 55.2519 101.637 64.8769C101.637 68.6582 103.699 82.5228 104.043 84.6998C107.595 125.148 106.679 126.408 111.376 131.221C111.99 132.155 112.815 132.932 113.786 133.487C114.756 134.042 115.844 134.361 116.96 134.417C118.077 134.473 119.191 134.264 120.211 133.808C121.232 133.352 122.131 132.662 122.835 131.794C126.934 123.25 129.531 114.063 130.512 104.637C140.366 118.502 145.293 126.867 150.002 129.158C151.198 129.892 152.563 130.304 153.965 130.355C155.367 130.406 156.758 130.093 158.003 129.447C159.249 128.801 160.306 127.845 161.072 126.67C161.839 125.495 162.288 124.141 162.377 122.741C162.755 118.357 162.755 113.949 162.377 109.564C163.294 66.8248 164.555 51.4592 158.94 53.5332C154.127 51.6884 155.044 63.2727 154.586 74.5019C154.586 73.5852 151.377 106.471 152.18 113.689C151.721 113.689 138.888 85.1582 137.398 82.5228M211.545 82.5228C210.976 81.2514 210.051 80.1718 208.882 79.4143C207.713 78.6569 206.35 78.2538 204.957 78.2538C203.564 78.2538 202.2 78.6569 201.031 79.4143C199.862 80.1718 198.937 81.2514 198.368 82.5228C194.951 91.4764 192.344 100.718 190.576 110.137L186.108 83.2103C183.472 71.7519 182.899 62.929 182.556 62.2415C180.264 55.8248 174.878 55.2519 175.795 64.8769C175.795 68.6582 177.858 82.5228 178.201 84.6998C181.753 125.148 180.837 126.408 185.42 131.221C186.049 132.135 186.88 132.892 187.849 133.433C188.818 133.974 189.899 134.285 191.008 134.34C192.116 134.395 193.222 134.194 194.241 133.753C195.259 133.311 196.162 132.641 196.878 131.794C200.978 123.25 203.575 114.063 204.556 104.637C214.41 118.502 219.337 126.867 224.035 129.158C225.23 129.892 226.595 130.304 227.997 130.355C229.399 130.406 230.79 130.093 232.036 129.447C233.281 128.801 234.338 127.845 235.105 126.67C235.871 125.495 236.321 124.141 236.41 122.741C236.787 118.357 236.787 113.949 236.41 109.564C237.326 66.8248 238.587 51.4592 232.972 53.5332C228.16 51.6884 229.076 63.2727 228.618 74.5019C228.618 73.5852 225.41 106.471 226.212 113.689C225.868 113.689 212.92 85.1582 211.545 82.5228Z" fill="white"/>
</g>
<defs>
<clipPath id="clip0_296_188">
<rect width="275" height="275" fill="white"/>
</clipPath>
</defs>
</svg>
